<svg xmlns="http://www.w3.org/2000/svg" viewBox="0 0 128.73 83.3"><defs><style>.cls-1,.cls-2{fill:#58534e;}.cls-2{font-size:6px;font-family:Kurale-Regular, Kurale;}.cls-3{letter-spacing:-0.05em;}</style></defs><title>Ресурс 3marseleza</title><g id="Слой_2" data-name="Слой 2"><g id="Слой_1-2" data-name="Слой 1"><path class="cls-1" d="M54.44,12.75a.26.26,0,0,1,.31.2.54.54,0,0,1,0,.48,31.58,31.58,0,0,0-3.81,5.87A53.58,53.58,0,0,0,48,26.22a49.68,49.68,0,0,0-1.9,7.2,37.62,37.62,0,0,0-.66,6.7A12.6,12.6,0,0,0,46,44.43c.39,1,.92,1.45,1.59,1.34q1.68-.27,3.31-3.45a.19.19,0,0,1,.28-.08.28.28,0,0,1,.11.33q-.48,1-1.08,1.92a15.9,15.9,0,0,1-1.25,1.77,10.59,10.59,0,0,1-1.3,1.35,2.42,2.42,0,0,1-1.17.63c-.76.12-1.44-.3-2-1.27a9.53,9.53,0,0,1-.88-4.74A41.4,41.4,0,0,1,44,36.32a51,51,0,0,1,1.39-6.49,49.72,49.72,0,0,1,2.32-6.49,39.06,39.06,0,0,1,3.19-5.94,68.88,68.88,0,0,0-5.57,6.65q-2.85,3.81-5.47,8T35,40.64a79.05,79.05,0,0,0-3.75,8.28,6,6,0,0,1-.66,1c-.32.42-.57.64-.75.67s-.31-.09-.31-.33a109.89,109.89,0,0,1,2.41-14.66,96.51,96.51,0,0,1,3.72-12.09q-3.52,6.74-6.92,12a65,65,0,0,1-6.79,9A29.52,29.52,0,0,1,15,50.29a15.9,15.9,0,0,1-7.32,2.17,6.93,6.93,0,0,1-3.21-.58,7,7,0,0,1-2.43-1.83,8.27,8.27,0,0,1-1.54-2.8A11.44,11.44,0,0,1,0,43.7a10.6,10.6,0,0,1,1-4.59,7.91,7.91,0,0,1,2.93-3.32c.12-.07.2,0,.25.1a.61.61,0,0,1,0,.42,5.82,5.82,0,0,0-1.91,2.43,9.49,9.49,0,0,0-.56,3.55,10.83,10.83,0,0,0,.49,3.25A7.65,7.65,0,0,0,3.59,48.2,6.54,6.54,0,0,0,5.93,50a6.91,6.91,0,0,0,3.24.55A14.38,14.38,0,0,0,16.6,48a33,33,0,0,0,6.89-6.44,75.36,75.36,0,0,0,6.57-9.39q3.23-5.36,6.44-11.53A51.28,51.28,0,0,0,30,19.33a27.56,27.56,0,0,0-6.46-.12A8.28,8.28,0,0,0,18.07,22a12.34,12.34,0,0,0-2.69,7.12c-.06.18-.14.25-.24.23s-.17-.13-.2-.3A13.45,13.45,0,0,1,18.12,21a10.71,10.71,0,0,1,7-3.38,26,26,0,0,1,3.65-.13c1.24.05,2.44.14,3.62.28s2.3.33,3.37.54,2,.44,2.93.66a.5.5,0,0,1,.2-.08.5.5,0,0,0,.2-.08c.12,0,.18,0,.2.18a.67.67,0,0,1-.07.37,4.69,4.69,0,0,0-1,1.29,20,20,0,0,0-.88,1.9,73.76,73.76,0,0,0-3.51,11.4q-1.3,5.88-2.18,11.83,2.07-4.59,4.76-9.29t5.69-9.06a100.57,100.57,0,0,1,6.17-8.13A67.84,67.84,0,0,1,54.44,12.75Z"/><path class="cls-1" d="M63.39,42.13a.15.15,0,0,1,.22,0,.27.27,0,0,1,.08.3A10.66,10.66,0,0,1,61.86,45a3.26,3.26,0,0,1-1.52,1,.61.61,0,0,1-.64-.36,3.07,3.07,0,0,1-.3-1.23,9.57,9.57,0,0,1,0-1.83,18.61,18.61,0,0,1,.37-2.17,29.31,29.31,0,0,1-2.51,4.2,6.72,6.72,0,0,1-2.55,2.34,1.32,1.32,0,0,1-1.35-.69,5.11,5.11,0,0,1-.55-2.75,11,11,0,0,1,.6-3.51,14.34,14.34,0,0,1,1.6-3.35A11.36,11.36,0,0,1,57.39,34a6,6,0,0,1,2.78-1.3,3.94,3.94,0,0,1,1.36,0,2.69,2.69,0,0,1,1.06.44,4,4,0,0,1,.73-.62,2.27,2.27,0,0,1,.86-.38c.15,0,.19.06.13.24a21.07,21.07,0,0,0-1.74,3.53,26.09,26.09,0,0,0-1.12,3.63,21.24,21.24,0,0,0-.51,3,3.17,3.17,0,0,0,.15,1.72c.15.22.41.19.8-.11A7.54,7.54,0,0,0,63.39,42.13ZM55.72,45c.32-.05.74-.39,1.25-1a17.41,17.41,0,0,0,1.61-2.38c.56-1,1.11-2,1.65-3.23s1-2.37,1.44-3.56a1.44,1.44,0,0,0-.82-.95,2.42,2.42,0,0,0-1.48-.17,3.72,3.72,0,0,0-1.82.92A6.82,6.82,0,0,0,56,36.48,11.25,11.25,0,0,0,55,39.19a12.76,12.76,0,0,0-.4,3.3,4.33,4.33,0,0,0,.33,1.84C55.12,44.8,55.39,45,55.72,45Z"/><path class="cls-1" d="M69.78,32.44a15,15,0,0,1-.14,1.84c-.08.71-.2,1.43-.35,2.15a18.93,18.93,0,0,1,1.94-4.27,3.68,3.68,0,0,1,2.29-1.82,1.25,1.25,0,0,1,.89.17.88.88,0,0,1,.39.82,3.55,3.55,0,0,1-.26,1.11A4.6,4.6,0,0,1,74,33.49c-.18.17-.26.13-.26-.11q0-.89-1-.72c-1,.18-2,1.25-2.78,3.21a48.11,48.11,0,0,0-2.33,8,1,1,0,0,1-.6.78,3.13,3.13,0,0,1-.86.31c-.32.05-.39-.12-.22-.54.27-.77.52-1.61.75-2.5s.46-1.79.69-2.69.4-1.79.55-2.65.26-1.65.35-2.36c.12-1.06,0-1.56-.44-1.49a1.67,1.67,0,0,0-.82.61,8.57,8.57,0,0,0-.86,1.25c-.12.09-.22.09-.3,0s-.11-.18,0-.33a14.45,14.45,0,0,1,1.48-2,2.83,2.83,0,0,1,1.52-1.07C69.45,31,69.78,31.46,69.78,32.44Z"/><path class="cls-1" d="M79.17,29.41a2.6,2.6,0,0,1,1.47.1q.6.24.6.66A5.5,5.5,0,0,1,81,31.5a8.19,8.19,0,0,1-.42,1.27.19.19,0,0,1-.24.06.15.15,0,0,1-.11-.21,3.73,3.73,0,0,0,.17-.87,2.4,2.4,0,0,0,0-.82,1,1,0,0,0-1.23-.85A2,2,0,0,0,78,30.8a2.62,2.62,0,0,0-.46,1.64A3.26,3.26,0,0,0,77.86,34c.26.46.53.92.84,1.38a10,10,0,0,1,.84,1.48,4.26,4.26,0,0,1,.38,1.84,4.73,4.73,0,0,1-1,3,4.43,4.43,0,0,1-3,1.64,3.7,3.7,0,0,1-2.25-.2c-.59-.28-.88-.63-.88-1a4.11,4.11,0,0,1,.48-1.49,6.78,6.78,0,0,1,1.11-1.69c.08-.09.16-.08.24,0a.27.27,0,0,1,0,.31,3.25,3.25,0,0,0-.53,1,1.92,1.92,0,0,0-.09,1,1.64,1.64,0,0,0,.69,1.21,1.77,1.77,0,0,0,1.3.23,2.72,2.72,0,0,0,1.78-1,3.11,3.11,0,0,0,.64-2,3.85,3.85,0,0,0-.4-1.78,16.26,16.26,0,0,0-.86-1.53c-.3-.49-.58-1-.83-1.48A3.65,3.65,0,0,1,76,33.16a3.85,3.85,0,0,1,.86-2.44A3.54,3.54,0,0,1,79.17,29.41Z"/><path class="cls-1" d="M90.4,30a2.45,2.45,0,0,1-.48,1.42,5.5,5.5,0,0,1-1.32,1.32,16.78,16.78,0,0,1-1.92,1.2c-.72.38-1.48.76-2.27,1.13,0,.38,0,.77-.07,1.15s0,.81,0,1.26a4,4,0,0,0,.49,2.11,1.25,1.25,0,0,0,1.36.68,3.45,3.45,0,0,0,1.66-.77,6.87,6.87,0,0,0,1.38-1.61c.12-.09.21-.09.27,0a.38.38,0,0,1,0,.36,9.59,9.59,0,0,1-1.87,2.34,4.6,4.6,0,0,1-2.36,1.22,2,2,0,0,1-1.88-.6,3.56,3.56,0,0,1-.72-2.49,13.42,13.42,0,0,1,.48-3.39,17.44,17.44,0,0,1,1.28-3.4,11.07,11.07,0,0,1,1.83-2.68A3.78,3.78,0,0,1,88.42,28a1.5,1.5,0,0,1,1.41.49A2.17,2.17,0,0,1,90.4,30Zm-2.9-.51a2.74,2.74,0,0,0-1.81,1.31,8.62,8.62,0,0,0-1.15,3.46,9.22,9.22,0,0,0,3.11-1.54,2.35,2.35,0,0,0,1-1.73,1.9,1.9,0,0,0-.31-1.16A.81.81,0,0,0,87.5,29.46Z"/><path class="cls-1" d="M109.89,0a1.31,1.31,0,0,1,1.48,1.13,4.08,4.08,0,0,1-.29,2.68c-.06.07-.13.08-.22,0a.43.43,0,0,1-.18-.24,1,1,0,0,0-.37-1,2,2,0,0,0-1.44-.29,5.86,5.86,0,0,0-3.74,2.23,27,27,0,0,0-3.57,5.26,60,60,0,0,0-3.2,7.08c-1,2.59-1.84,5.16-2.56,7.7s-1.28,4.93-1.69,7.16a31.33,31.33,0,0,0-.62,5.37c0,1,.25,1.53.75,1.47a1.77,1.77,0,0,0,1-.66,12.83,12.83,0,0,0,1.16-1.72.16.16,0,0,1,.25,0,.35.35,0,0,1,.06.33,12.91,12.91,0,0,1-1.94,2.88A3.51,3.51,0,0,1,93,40.65a.89.89,0,0,1-.93-.42,2.42,2.42,0,0,1-.35-1.43A21.59,21.59,0,0,1,92.17,35q.43-2.39,1.23-5.36t1.92-6.28c.75-2.2,1.56-4.38,2.45-6.54s1.81-4.24,2.8-6.23a42.77,42.77,0,0,1,3-5.29,19.64,19.64,0,0,1,3.15-3.72A5.56,5.56,0,0,1,109.89,0Z"/><path class="cls-1" d="M105.39,28.11a2.39,2.39,0,0,1-.48,1.4,5.57,5.57,0,0,1-1.33,1.26,14.6,14.6,0,0,1-1.91,1.13c-.72.36-1.48.71-2.27,1.05,0,.38-.05.77-.07,1.15s0,.8,0,1.25a4.2,4.2,0,0,0,.48,2.13,1.31,1.31,0,0,0,1.37.73,3.19,3.19,0,0,0,1.65-.71,6.06,6.06,0,0,0,1.39-1.56q.18-.12.27,0a.38.38,0,0,1,0,.36,8.88,8.88,0,0,1-1.88,2.26,4.26,4.26,0,0,1-2.35,1.13,2,2,0,0,1-1.88-.65,3.68,3.68,0,0,1-.73-2.52,13.19,13.19,0,0,1,.49-3.37,17.06,17.06,0,0,1,1.28-3.36,10.41,10.41,0,0,1,1.83-2.62A3.61,3.61,0,0,1,103.41,26a1.57,1.57,0,0,1,1.41.56A2.22,2.22,0,0,1,105.39,28.11Zm-2.91-.63a2.56,2.56,0,0,0-1.8,1.25,8.2,8.2,0,0,0-1.15,3.42,9.15,9.15,0,0,0,3.11-1.43,2.25,2.25,0,0,0,1-1.7,1.94,1.94,0,0,0-.31-1.16A.85.85,0,0,0,102.48,27.48Z"/><path class="cls-1" d="M107.53,36.39a15.57,15.57,0,0,0,2.09.52,8.28,8.28,0,0,0,2.17.1,2.68,2.68,0,0,0,1.87-.89,6.36,6.36,0,0,0,1.21-2.35.25.25,0,0,1,.31,0,.21.21,0,0,1,.08.3,9.6,9.6,0,0,1-1.6,3.27,3.3,3.3,0,0,1-2.35,1.35,7.65,7.65,0,0,1-1.85-.08,12.93,12.93,0,0,1-1.93-.48,1.11,1.11,0,0,0-1,0,4.26,4.26,0,0,0-1.13,1.05.36.36,0,0,1-.35-.23.53.53,0,0,1,0-.52c.65-.83,1.36-1.74,2.14-2.71l2.35-3c.79-1,1.56-2,2.31-2.9l2-2.55a14.55,14.55,0,0,0-2.15-.26,14.82,14.82,0,0,0-2,0c-.85.08-1.44.69-1.76,1.83a.18.18,0,0,1-.27.07.26.26,0,0,1-.17-.24,7.15,7.15,0,0,1,1.1-2.21,2.52,2.52,0,0,1,1.89-1.13,7.25,7.25,0,0,1,1.93.08c.62.11,1.13.22,1.54.33a1.49,1.49,0,0,0,.83-.08,2.09,2.09,0,0,0,.71-.54.52.52,0,0,1,.4-.18c.35,0,.5.1.44.39-1.59,1.9-3.13,3.79-4.64,5.66S108.82,34.71,107.53,36.39Z"/><path class="cls-1" d="M127.78,34.6a.14.14,0,0,1,.22,0,.28.28,0,0,1,.09.31,8.93,8.93,0,0,1-1.83,2.25,2.71,2.71,0,0,1-1.52.76.7.7,0,0,1-.64-.46,3.46,3.46,0,0,1-.31-1.26,9.61,9.61,0,0,1,0-1.83,17.18,17.18,0,0,1,.37-2.12,24.42,24.42,0,0,1-2.51,3.85,5.64,5.64,0,0,1-2.56,2,1.47,1.47,0,0,1-1.34-.84,5.47,5.47,0,0,1-.55-2.81,10.69,10.69,0,0,1,.59-3.45,12.89,12.89,0,0,1,1.61-3.16,9,9,0,0,1,2.34-2.3,5.12,5.12,0,0,1,2.78-.92,3.76,3.76,0,0,1,1.36.19,3.15,3.15,0,0,1,1.06.61,2.9,2.9,0,0,1,.73-.5,1.87,1.87,0,0,1,.86-.24c.14,0,.19.09.13.26A16.69,16.69,0,0,0,127,28.19a23.58,23.58,0,0,0-1.13,3.46,20.66,20.66,0,0,0-.5,3,3.33,3.33,0,0,0,.15,1.74c.15.24.41.25.79,0A5.84,5.84,0,0,0,127.78,34.6Zm-7.67,1.7c.33,0,.74-.3,1.26-.86A15.48,15.48,0,0,0,123,33.27a31.15,31.15,0,0,0,1.65-3A33.2,33.2,0,0,0,126.06,27a1.77,1.77,0,0,0-.81-1.08,2.54,2.54,0,0,0-1.48-.38,3.14,3.14,0,0,0-1.83.65,5.77,5.77,0,0,0-1.52,1.73,10.08,10.08,0,0,0-1.06,2.57,12.7,12.7,0,0,0-.39,3.25,4.71,4.71,0,0,0,.33,1.89Q119.63,36.32,120.11,36.3Z"/><text class="cls-2" transform="translate(21.84 67.71) scale(1.1 1)"><tspan class="cls-3">T</tspan><tspan x="2.91" y="0">iny stitch, tiny crochet. With love.</tspan></text></g></g></svg>