<svg id="Слой_1" data-name="Слой 1" xmlns="http://www.w3.org/2000/svg" viewBox="0 0 1400.34 910.45"><defs><style>.cls-1{fill:#f8f6f4;stroke:#201600;stroke-miterlimit:10;stroke-width:0.25px;}.cls-2{fill:#ebd2ba;}.cls-3{fill:#bfbcae;}.cls-4{fill:#ab8f75;}.cls-5{fill:#c6b8c7;}.cls-6{fill:#d1baa2;opacity:0.25;isolation:isolate;}</style></defs><title>dryjc45457587876</title><rect class="cls-1" x="3.19" y="5.03" width="1397.03" height="898.84"/><path class="cls-2" d="M1342.67,556.88s.86-6.64-4.9-7.83-7.33,4.88-7.33,4.88-4.08-6.32-9.69-3.68c-4.11,1.93-3.47,7.36-3.47,7.36s-5.65-1-6,6.37c-.21,4,4.76,6,4.76,6s-2.8,4.95.23,8.51,7.8.92,7.8.92-.39,5.94,5.34,7.41,8.66-3,8.16-6.26c0,0,4.24,3.47,7.64.52s1-9.93,1-9.93,4.64-1.53,3.67-7.88A7.11,7.11,0,0,0,1342.67,556.88Zm-7.17,16.38c-1.31.92-6.11,3.11-8.78-.65-4.89-6.93,1.71-10.68,3.88-11.66a5.66,5.66,0,0,1,7.61,3.21C1340.62,569.7,1336.81,572.34,1335.5,573.26Z" transform="translate(1.54 3.71)"/><path class="cls-2" d="M1266.86,615.79s-4,6.27,4.24,10.42c4.48,2.27,9.23-2.69,9.23-2.69s4.23,5.85,9.84,4,5-8.89,5-8.89,6.58,3.47,11.14-2.65,1-11.92-3-13c0,0,6.1-3.33,4.45-8.91s-10.85-6.16-10.85-6.16.61-6.33-7.14-8.38c-8-2.12-10.88,5.37-10.88,5.37s-7.14-4.38-11.41,1.94,1.87,11.25,1.87,11.25-9.27,1.7-9.09,9.75C1260.35,613.82,1266.86,615.79,1266.86,615.79Zm10.36-11.15a7.39,7.39,0,0,1,7.51-7.51c7.53-.1,8.62,5.81,9,7.84s.47,8.9-5.18,10.2C1278.19,617.54,1277.23,607.74,1277.22,604.64Z" transform="translate(1.54 3.71)"/><path class="cls-2" d="M1282.14,569.71c5.17-1.29,6.15-10.08,6.15-10.08s5.74.9,8-6.41a8.71,8.71,0,0,0-4.34-10.7s4.34-6.62-1.19-11-10.35,1.22-10.35,1.22-1.09-9-8.43-9.2c-5.4-.17-7.53,6-7.53,6s-5.52-4.12-9.71,3.53c-2.3,4.18,2,9,2,9s-5.54,3.77-4.15,9.22,7.85,5.23,7.85,5.23-3.49,6.12,1.86,10.8,10.8,1.51,12-2.23C1274.23,565,1277,571,1282.14,569.71Zm-6.34-13.61c-1.87.27-8.13,0-9-5.47-1.64-10,7.35-10.47,10.17-10.32a6.91,6.91,0,0,1,6.46,7.57C1283.12,555.1,1277.68,555.85,1275.8,556.1Z" transform="translate(1.54 3.71)"/><path class="cls-2" d="M1227,561c3.72-2.75,1.6-7.82,1.6-7.82a7,7,0,0,0,7.62-4.73c1.94-5.66-2.11-9.06-5.29-8.84,0,0,3.73-4,1.19-7.7s-9.49-1.87-9.49-1.87-1.05-4.83-7.27-4.43c-6.43.42-6.79,6.67-6.79,6.67s-6.32-1.46-8,4.27,4,7.87,4,7.87-6.45,3.56-4.42,9.48c1.49,4.35,6.79,4.19,6.79,4.19s-1.46,5.62,5.59,6.66c3.85.57,6.2-4.28,6.2-4.28S1223.32,563.76,1227,561Zm-4.72-11.13c-7.12,4.34-10.14-2.69-10.89-5a5.86,5.86,0,0,1,3.79-7.42c5.56-2,7.76,2.16,8.53,3.57S1226.2,547.52,1222.32,549.88Z" transform="translate(1.54 3.71)"/><path class="cls-2" d="M1173.05,529.16c3.92-2.9,1.68-8.24,1.68-8.24s6,1,8-5-2.23-9.56-5.59-9.33c0,0,3.93-4.2,1.26-8.13s-10-2-10-2-1.11-5.1-7.67-4.68c-6.79.44-7.16,7.05-7.16,7.05s-6.67-1.55-8.43,4.49,4.26,8.3,4.26,8.3-6.81,3.76-4.67,10c1.57,4.59,7.16,4.42,7.16,4.42s-1.54,5.94,5.9,7c4.07.6,6.54-4.52,6.54-4.52S1169.14,532.06,1173.05,529.16Zm-5-11.74c-7.51,4.57-10.71-2.85-11.48-5.26a6.16,6.16,0,0,1,4-7.83c5.86-2.05,8.19,2.28,9,3.77S1172.17,514.93,1168.08,517.42Z" transform="translate(1.54 3.71)"/><path class="cls-2" d="M1357.42,638.06c4.52-3.36,1.93-9.53,1.93-9.53s6.94,1.14,9.29-5.76-2.57-11-6.45-10.77c0,0,4.54-4.84,1.45-9.38s-11.56-2.27-11.56-2.27-1.27-5.9-8.85-5.41c-7.84.51-8.27,8.14-8.27,8.14s-7.7-1.79-9.73,5.19,4.91,9.59,4.91,9.59-7.86,4.33-5.39,11.54c1.82,5.3,8.27,5.11,8.27,5.11s-1.78,6.85,6.82,8.12c4.69.7,7.54-5.22,7.54-5.22S1352.89,641.41,1357.42,638.06Zm-5.76-13.56c-8.67,5.28-12.36-3.28-13.26-6.07a7.14,7.14,0,0,1,4.62-9c6.76-2.36,9.45,2.63,10.38,4.35S1356.39,621.62,1351.66,624.5Z" transform="translate(1.54 3.71)"/><path class="cls-2" d="M1021,85.06s-7.35-3.62-10.69,6.29c-1.82,5.41,4.21,10.12,4.21,10.12s-5.73,5.64-3,11.76,10.32,4.42,10.32,4.42-2.82,8,4.45,12.3,13-.6,13.6-5.26c0,0,4.46,6.46,10.28,3.8s5.13-13.21,5.13-13.21,6.94-.21,8.07-9.31A10.31,10.31,0,0,0,1056,94.35s3.74-8.74-3.7-12.7-11.92,3.7-11.92,3.7-3.14-10.29-11.84-9C1022.17,77.37,1021,85.06,1021,85.06Zm13.53,10.21c3.8-.51,8.41,1.81,9.18,7.48,1.18,8.56-5.06,10.64-7.22,11.36s-9.57,1.79-11.77-4.45C1020.65,98.19,1031.14,95.72,1034.49,95.27Z" transform="translate(1.54 3.71)"/><path class="cls-3" d="M1112.59-3.71s-4.23,25.35.93,43.9c3.07,11,6.35,17.92,10.56,22.79-7.62-3.78-15.23-7.52-22.74-11.3a1.75,1.75,0,0,0-1.08-.19c-.15-2.84-1.26-7.5-6.39-11.49-13-10.12-42.46-3.09-42.46-3.09s34.5,30.53,47.91,18a2.19,2.19,0,0,0,.7.56q15.54,7.83,31,15.92c-27.37-4.46-56.82,19.09-56.82,19.09,45.6,7,62.34-8.73,66.56-14,.69.36,1.37.7,2,1.07,13.25,7,26.8,13.77,39,22.65.87.63,1.72,1.28,2.57,1.93-10-2.48-32.31-4.62-58.87,14.24,0,0,40.45,19.22,63.31-10.76,13.2,10.77,24.66,23.38,35.59,36.53-24.77-13.72-72.09,4.54-72.09,4.54a106.06,106.06,0,0,0,43.17,14.2c20.16,2.07,31.51-7.36,35.18-11.12l2.47,3.05c3.94,4.87,7.81,9.79,11.73,14.67-7.37-2.12-21-.48-43,21.14,0,0,43.35,1,49.28-13.4,5.21,6.28,10.55,12.42,16.25,18.17-3.71-1-10-1.46-18.78,2.38-14.78,6.47-46.35,20.49-46.35,20.49s72.55,8.46,69.52-18.59a136.55,136.55,0,0,0,20.22,16,207.1,207.1,0,0,0,40.89,20.61c2.4.85,3.71-2.94,1.33-3.79a190.07,190.07,0,0,1-34.45-16.58c2-1.85,9.55-9.61,9.08-23.32-.56-15.84-11-30.25-11-30.25s-7.38,16.1-7,30c.38,12.56,4.59,18.45,7.47,22.66-3-1.86-5.93-3.78-8.79-5.78a151.43,151.43,0,0,1-23.26-20.53c3.61-.45,10.61-2.71,14.3-13.14,5.13-14.47-3.28-46.79-3.28-46.79s-20.71,36-16.78,53.58c-8.16-9.29-15.76-19.17-23.47-28.87a5.24,5.24,0,0,0,.58.24s15.42-3,27.84-29.55,8.34-43.53,8.34-43.53-23.22,13-37.84,40.34c-6.26,11.72-6.85,19.4-5.48,24.36-5.77-7-11.67-14-17.86-20.66,4.71-4.14,19.4-18.42,21.55-37.1,2.56-22.31-2.17-60.94-2.17-60.94S1208.32,64,1206.23,83.51c-1.53,14.29,1.86,29.36,3.77,36.39a192.1,192.1,0,0,0-24.71-22.05c1.68-2.52,5.55-11.42-2.74-33C1172.41,38.54,1151,8.57,1151,8.57s-3.09,31.62,5.7,54.81c5.1,13.45,11.27,21.31,17,26.61-12.14-7.67-24.88-14.53-37.77-21.08,2.25-3.08,5.72-10,3.13-21.57-3.65-16.34-26.4-51.05-26.4-51.05" transform="translate(1.54 3.71)"/><path class="cls-3" d="M1345.5,469.92c10.93,11.86,21.22,24.39,31.56,36.53,1.92,2.26,5.61-.41,3.67-2.68-4.59-5.39-9.18-10.86-13.81-16.31a255.83,255.83,0,0,0,7.54-44.5c4-2.62,12.21-10,16.85-28.68,0,0-10.49,6.72-16,16.52.78-14.29.81-28.61.55-42.64a17.4,17.4,0,0,1-1.79.07,13.87,13.87,0,0,1-2.73-.28c.18,10,.23,20.21,0,30.46-3.31-8-12.75-15.49-12.75-15.49a38.23,38.23,0,0,0,12.61,20.28c-.75,20.38-2.89,40.82-7.84,60.08a428.53,428.53,0,0,0-30-32.19c9.07-20.49,8.61-44.75,5.94-66.79a266.22,266.22,0,0,0-6.53-35.51l-.5.2a13,13,0,0,1-3.92.74,244.11,244.11,0,0,1,6.43,35c.3,2.64.58,5.3.81,8-7.78-11.95-24-17-24-17,10.43,14.82,20.12,19.84,24.37,21.44,1.19,17.16.39,34.84-6.16,50.55a205.26,205.26,0,0,0-20.61-16.6,2.77,2.77,0,0,0,0-.71c-1.38-12.75-7.16-25.11-12.74-36.48-7.49-15.26-16-30-24.84-44.48q-4.35-7.06-8.79-14.09c10.25-17,2.38-40.59,2.38-40.59-7.31,14.27-6.5,28.46-5.14,36.31q-10.08-15.72-20.75-31a25.87,25.87,0,0,1-4,2.21q16.08,23,30.8,46.89c1.17,1.9,2.34,3.79,3.5,5.7-17.84-12.52-37.9-10.29-37.9-10.29,15.56,11.7,33.62,13.44,39.94,13.68,7.06,11.69,13.84,23.57,19.85,35.84,5.18,10.54,10.77,21.93,12.71,33.7-.53-.34-1-.7-1.57-1a258.43,258.43,0,0,0-30.07-16.29c-1.75-13.19-19.13-22.76-19.13-22.76a46.85,46.85,0,0,0,14.77,20.79,255.86,255.86,0,0,0-45.41-15.14c0,.7-.09,1.4-.2,2.13a23.09,23.09,0,0,1-.48,2.45,253.09,253.09,0,0,1,81.75,35c14,9.32,26.46,20.78,38.13,33.12-17.94,4.25-38.61.63-56.6-2.42a17.39,17.39,0,0,0-9.45-15,22,22,0,0,0,6.07,14.47c-11.48-2-22.94-4.22-34.25-7l0,.22a18.79,18.79,0,0,1-.07,4.52c13.29,3.27,26.76,5.9,40.25,7.95,4.45.66,9,1.38,13.71,2-11,4.37-16.7,16.38-16.7,16.38,15.45-.05,20.84-10.9,22.46-15.68a156,156,0,0,0,16.56,1.05c-6.86,16.69-22.57,28.84-39.14,34.79a10.33,10.33,0,0,1,1.3,3.42,9.59,9.59,0,0,1,.14,1,79.63,79.63,0,0,0,17.23-8.58c-2.25,3.26-5.4,9-4.17,14.22,0,0,6.4-5.21,6.25-15.61,10.42-7.35,19-17.35,23.33-29.34A73.65,73.65,0,0,0,1345.5,469.92Z" transform="translate(1.54 3.71)"/><path class="cls-4" d="M1330.6,561c-2.17,1-8.77,4.73-3.88,11.66,2.67,3.76,7.47,1.56,8.78.65s5.12-3.56,2.71-9.1A5.66,5.66,0,0,0,1330.6,561Z" transform="translate(1.54 3.71)"/><path class="cls-4" d="M1168.08,517.42c4.09-2.49,2.31-7.83,1.5-9.32s-3.13-5.82-9-3.77a6.17,6.17,0,0,0-4,7.83C1157.37,514.57,1160.56,522,1168.08,517.42Z" transform="translate(1.54 3.71)"/><path class="cls-4" d="M1043.67,102.75c-.77-5.67-5.38-8-9.18-7.48-3.35.45-13.84,2.92-9.81,14.39,2.2,6.24,9.62,5.17,11.77,4.45S1044.85,111.31,1043.67,102.75Z" transform="translate(1.54 3.71)"/><path class="cls-5" d="M1222.51,395.5c.11-.73.16-1.44.2-2.14,1.47-26-42.75-31.69-42.75-31.69l7,14.42-22.32,8.66,20.93,16.39-10,15.85s40.29,6,46.47-19.05A22.42,22.42,0,0,0,1222.51,395.5Z" transform="translate(1.54 3.71)"/><path class="cls-5" d="M1374.07,388.24a17.4,17.4,0,0,0,1.79-.07c23.5-1.58,15.92-37.4,15.92-37.4l-9.54,4.56-6.08-12.24-7.68,10.63-10.92-4.16s-3.76,35,13.78,38.4A15.67,15.67,0,0,0,1374.07,388.24Z" transform="translate(1.54 3.71)"/><path class="cls-5" d="M1210.33,465l-8.49,12.6s42.83,4.88,45.81-16.84a19.42,19.42,0,0,0,.06-4.53l0-.22c-2.85-26.68-44-26.76-44-26.76l9.93,13.3-20.76,8Z" transform="translate(1.54 3.71)"/><path class="cls-5" d="M1194.65,265.19s19.56,45.65,39.65,37.5c.32-.13.62-.27.92-.41a26.32,26.32,0,0,0,4-2.2c22.33-15.09.81-55.65.81-55.65l-7.17,14.72L1212.51,245l0,22.68Z" transform="translate(1.54 3.71)"/><path class="cls-5" d="M1298,310.34s12.24,39.91,30.31,39.39a13,13,0,0,0,3.93-.73l.49-.2c24.14-9.2,5.62-51.44,5.62-51.44l-9.57,10.2-13.44-13.43-4.17,19.6Z" transform="translate(1.54 3.71)"/><path class="cls-3" d="M1362.1,672.06a113.92,113.92,0,0,0-.1-24.42,1,1,0,0,0-2,.25,106,106,0,0,1,.44,20.39,14.78,14.78,0,0,0-12.76,1.07c-7.11,3.95-11.26,12.3-11.26,12.3s9.06-.2,15.33-3.64a18.9,18.9,0,0,0,8.61-8.86c-.16,1.87-.34,3.73-.59,5.56a82.06,82.06,0,0,1-4,15.94c-1-1.62-3.71-4.45-9.34-3.8-7.8.9-20.6,12.45-20.6,12.45s21.24,1.58,28.38-4.4c-2.34,6.07-5.1,12-7.73,18a3.18,3.18,0,0,0,0-.34s-4.94-6.71-20-6.49-21.81,6.13-21.81,6.13a54.77,54.77,0,0,0,27.21,8.78c6.82.27,10.46-1.23,12.41-3-1.88,4.41-3.68,8.86-5.28,13.38-3-1.3-12.93-5-22-1.72-10.79,4-27.32,15.22-27.32,15.22s23.47,2.24,32.85-1.29c6.89-2.59,13-7.72,15.75-10.28a104.21,104.21,0,0,0-4.32,17c-1.55-.21-6.51,0-14.42,9-9.67,11-18.37,28.25-18.37,28.25S1316.4,781.59,1325,772c5-5.59,7.1-10.37,8.2-14.33-.67,7.6-.84,15.32-.84,23-1.93-.36-5.89-.41-10.58,3.52-6.6,5.55-17.16,24.55-17.16,24.55s12.56-3.87,19.83-10.66c4.32-4,6.71-7.22,7.95-10.37,0,4.53.11,9,.13,13.54a1,1,0,0,0,.16.56,8,8,0,0,0-3.76,5.74c-1.6,8.58,8.46,21.09,8.46,21.09s5.92-23.65-2.92-27.17a1.19,1.19,0,0,0,.09-.47q0-9.29.07-18.56c4.34,14.17,21.94,22.82,21.94,22.82-7.44-23.51-18.5-27.88-21.88-28.69,0-.42,0-.82,0-1.23.13-8,0-16.07,1.27-24,.08-.57.19-1.13.28-1.69,1.2,5.38,5.41,16.58,20.21,24.94,0,0-.64-23.88-19.65-27.89a143,143,0,0,1,8.4-25.57c-.5,15.08,18.84,33.54,18.84,33.54a59,59,0,0,0-3.56-24c-3.74-10.15-10.69-13.41-13.26-14.3l.82-1.89c1.31-3,2.66-6,4-9.05.75,4,4.67,10.2,19.65,15.71,0,0-9.65-21-17.59-20.52,1.67-4,3.23-8,4.54-12,.39,2,1.65,5.15,5.45,8.45,6.39,5.59,20.14,17.48,20.14,17.48s-13-36.78-24.67-29A73.84,73.84,0,0,0,1362.1,672.06Z" transform="translate(1.54 3.71)"/><path class="cls-2" d="M1081.69,637.25c-1.25,5.82,4.93,8.78,4.93,8.78s-6.15,4-3.31,11.07,9.46,6.76,12.29,3.8c0,0-.25,7,5.22,8.31s10.52-6.44,10.52-6.44,5,3.67,10.54-2.1c5.75-6,.93-12.21.93-12.21s7.19-4.08,4-11-10.31-4-10.31-4,3.17-9-3.63-12.81c-5-2.82-9.88,1.91-9.88,1.91s-3.26-6.58-10.79-1.45c-4.13,2.79-2.33,9.41-2.33,9.41S1082.94,631.42,1081.69,637.25Z" transform="translate(1.54 3.71)"/><path class="cls-2" d="M1158.48,831s2.84-28.8-5-57.26A177.82,177.82,0,0,1,1135,749l-.44.27a149.5,149.5,0,0,1-.49,26.34l.54.06S1143.23,813.68,1158.48,831Z" transform="translate(1.54 3.71)"/><path class="cls-2" d="M1230.45,791.75c-6.22-16.69-39.07-44.1-39.07-44.1a316.7,316.7,0,0,1-38.24-12.44s7.67,7.16,16.91,20.36l.18-.14C1187.83,775.48,1230.45,791.76,1230.45,791.75Z" transform="translate(1.54 3.71)"/><path class="cls-2" d="M1209,722.28c20.93-.56,51.57-13.13,51.57-13.13-15.56-14.63-75.23-8.82-75.23-8.82a197.29,197.29,0,0,1-29.59,6.45,51.59,51.59,0,0,1-5.08,10.65c4.82,1.89,33.62,5,54.43,4.9C1206.42,722.33,1207.72,722.31,1209,722.28Z" transform="translate(1.54 3.71)"/><path class="cls-2" d="M1158.43,688.72l.62,1.61a59.81,59.81,0,0,0,20.21-10.52c21.74-16.59,36.2-44.49,36.2-44.49-41.72,16.4-58.5,42.93-58.5,42.93A43.07,43.07,0,0,1,1158.43,688.72Z" transform="translate(1.54 3.71)"/><path class="cls-3" d="M1022,829c-1.08,1,.59,2.45,1.65,1.5q4.39-3.94,8.78-7.93l.15.22c14.38,18.65,44.55-5.92,44.55-5.92-2.39-1.88-8.8-1.8-8.8-1.8,8.2-4.67,25.36-26.72,25.36-26.72-4.08-1.66-12,.18-12,.18,6.71-4.18,18.62-33,18.62-33-8.69-1.27-31.19,15-31.19,15-1-2.1,3-15.32,3-15.32-6,2.21-15.64,17.34-15.64,17.34l-1.12-9A45.28,45.28,0,0,0,1041.13,778c-5.2,8.71-15.5,31-9.85,42.68Q1026.68,824.84,1022,829Z" transform="translate(1.54 3.71)"/><path class="cls-4" d="M1095.33,643.7c-1.73,5.6,4,8.92,5.93,9.6s7.36,2.65,11-4a7.51,7.51,0,0,0-2.54-10.31C1107.15,637.46,1098.5,633.42,1095.33,643.7Z" transform="translate(1.54 3.71)"/><path class="cls-4" d="M1118.94,743.09a94.32,94.32,0,0,0,10.22-5.35h0a73.73,73.73,0,0,0,10.89-8,58.6,58.6,0,0,0,10.6-12.34,50.87,50.87,0,0,0,7.78-28.71,43.07,43.07,0,0,0-1.47-10.47s-26-8.52-41.11,17.49S1119,743.09,1118.94,743.09Z" transform="translate(1.54 3.71)"/><path class="cls-4" d="M1081.92,772q-9.75,9.84-19.69,19.49c1.11-3.33,2.23-6.67,3.33-10,.46-1.38-1.71-1.8-2.16-.44q-2.28,6.88-4.57,13.76-6.42,6.21-12.92,12.31a123.32,123.32,0,0,1,7.46-25.35c.56-1.34-1.41-2.36-2-1a124.69,124.69,0,0,0-8.13,28.85q-6,5.56-12,11.06c-3.07,2.8-6.15,5.6-9.25,8.37-1.07,1,.59,2.45,1.65,1.5q4.41-3.94,8.78-7.93l5.34-4.89h18.82c1.42,0,1.26-2.26-.16-2.26h-16.22q7.4-6.85,14.69-13.81h.09l14.87.07c1.42,0,1.25-2.24-.16-2.26l-12.48-.06q13.32-12.76,26.31-25.89C1084.58,772.46,1082.92,771,1081.92,772Z" transform="translate(1.54 3.71)"/><path class="cls-6" d="M1129.17,737.75A96.13,96.13,0,0,1,1119,743.1s-9.54,41.21,3.52,81.93a204.6,204.6,0,0,0,11.59-49.45,149.4,149.4,0,0,0,.48-26.33l.44-.27A91.88,91.88,0,0,1,1129.17,737.75Z" transform="translate(1.54 3.71)"/><path class="cls-6" d="M1135,749a177.94,177.94,0,0,0,18.52,24.75c20.18,23,43.69,41.61,43.69,41.61a176.38,176.38,0,0,0-27.14-59.77c-9.24-13.19-16.91-20.35-16.91-20.35-8-3.13-13.09-5.45-13.09-5.45a73.61,73.61,0,0,1-10.88,8h0A92.78,92.78,0,0,0,1135,749Z" transform="translate(1.54 3.71)"/><path class="cls-6" d="M1153.13,735.21a317.5,317.5,0,0,0,38.25,12.44c1.65.39,3.3.79,4.94,1.15,27.5,6,57,7.14,57,7.14-10.24-12.47-48.25-33.61-48.25-33.61-20.81.1-49.61-3-54.43-4.9a58.07,58.07,0,0,1-10.6,12.34S1145.17,732.08,1153.13,735.21Z" transform="translate(1.54 3.71)"/><path class="cls-6" d="M1155.73,706.78a196.75,196.75,0,0,0,29.59-6.45,205.07,205.07,0,0,0,24.78-9.55c19.36-8.79,35-25.51,35-25.51-40.51,3.05-65.87,14.53-65.87,14.53a59.79,59.79,0,0,1-20.2,10.53l-.63-1.61A51.47,51.47,0,0,1,1155.73,706.78Z" transform="translate(1.54 3.71)"/><path class="cls-2" d="M1309.28,65.29c3.81,6.69,12.26,3.93,12.26,3.93s-2.4,9.42,6.37,13.58,14.85-2.11,15-7.49c0,0,5.77,6.9,12.15,3.22s4.5-15.67,4.5-15.67,7.92-1,8.26-11.53c.37-10.9-9.61-12.51-9.61-12.51s3.36-10.41-5.55-14.13-13.26,5.55-13.26,5.55-4.68-11.44-14.49-9c-7.19,1.82-7.79,10.76-7.79,10.76s-8.78-3.34-11.56,8.37c-1.54,6.4,5.87,11.1,5.87,11.1S1305.46,58.59,1309.28,65.29Zm18.58-6.17c-5.81-12.68,5.93-16.65,9.72-17.53,4.29-1,9.82,1.15,11.29,7.56,2.23,9.66-4.69,12.72-7.08,13.78S1331,66,1327.86,59.12Z" transform="translate(1.54 3.71)"/><path class="cls-4" d="M1349.16,50.2c-.93-6.83-6.49-9.63-11.06-9-4,.54-16.69,3.52-11.83,17.34,2.65,7.52,11.6,6.23,14.19,5.37S1350.57,60.52,1349.16,50.2Z" transform="translate(1.54 3.71)"/><path class="cls-3" d="M1329.11,189a81,81,0,0,0-4.11,16.62.72.72,0,0,0,1.43.19,73.77,73.77,0,0,1,3.19-13.93,10.4,10.4,0,0,0,8.86,1.56c5.49-1.41,9.74-6.34,9.74-6.34s-6.19-1.49-11-.28a13.07,13.07,0,0,0-7.37,4.48c.43-1.25.87-2.48,1.35-3.68a56.8,56.8,0,0,1,5.42-10.12c.43,1.29,1.76,3.69,5.69,4.26,5.46.79,16.13-4.76,16.13-4.76s-14.16-4.89-20-2.1c2.62-3.71,5.51-7.26,8.32-10.84,0,.16,0,.24,0,.24s2.21,5.44,12.46,8,15.87-.26,15.87-.26a39.08,39.08,0,0,0-17-10.85c-4.59-1.41-7.32-1-9-.16,2-2.66,4-5.36,5.87-8.14,1.81,1.41,7.93,5.74,14.63,5.1,8-.75,21.17-5.43,21.17-5.43s-15.57-5.74-22.56-5a36.28,36.28,0,0,0-12.45,4.15,72.19,72.19,0,0,0,5.84-10.77c1,.42,4.42,1.18,11.33-3.52,8.45-5.73,17.31-15.9,17.31-15.9s-11.3,1.27-18.75,6.26a24.47,24.47,0,0,0-8,8.27c1.76-5,3.2-10.26,4.51-15.5,1.24.6,3.93,1.34,7.79-.49,5.44-2.58,15.86-13.6,15.86-13.6s-9.2.38-15.3,3.69c-3.62,2-5.79,3.7-7.17,5.62.74-3.09,1.47-6.17,2.23-9.23a.69.69,0,0,0,0-.41,5.53,5.53,0,0,0,3.54-3.22c2.55-5.55-2.15-15.86-2.15-15.86s-8.06,15-2.66,19a.78.78,0,0,0-.14.29q-1.56,6.32-3.22,12.61c-.52-10.41-11-19.45-11-19.45,1,17.31,7.8,22.27,10,23.43l-.21.83c-1.46,5.41-2.78,10.91-5,16.07-.15.37-.32.72-.48,1.09.1-3.87-.84-12.24-9.46-20.58,0,0-3.66,16.35,8.58,22.48A99.81,99.81,0,0,1,1349,158.69c2.92-10.16-7.07-26.18-7.07-26.18a41.43,41.43,0,0,0-1.69,17c.81,7.57,5,11,6.57,12.1l-.88,1.14c-1.41,1.82-2.83,3.62-4.25,5.43.18-2.87-1.42-7.76-10.67-14.2,0,0,3,16,8.45,17.11-1.81,2.4-3.54,4.83-5.13,7.37a11,11,0,0,0-2.26-6.74c-3.39-4.94-10.7-15.49-10.7-15.49s2.56,27.33,11.8,24.16A52,52,0,0,0,1329.11,189Z" transform="translate(1.54 3.71)"/><path class="cls-2" d="M1358.06,280.61s-4.16-2-6,3.56c-1,3.07,2.38,5.73,2.38,5.73s-3.24,3.19-1.67,6.65,5.84,2.5,5.84,2.5-1.6,4.51,2.52,7,7.38-.34,7.7-3c0,0,2.52,3.66,5.81,2.15s2.91-7.48,2.91-7.48,3.92-.11,4.56-5.26a5.83,5.83,0,0,0-4.16-6.58s2.11-4.94-2.1-7.19-6.74,2.1-6.74,2.1-1.78-5.83-6.7-5.07C1358.74,276.27,1358.06,280.61,1358.06,280.61Zm7.66,5.78a4.64,4.64,0,0,1,5.19,4.24c.66,4.84-2.87,6-4.09,6.42s-5.42,1-6.66-2.52C1357.88,288,1363.82,286.65,1365.72,286.39Z" transform="translate(1.54 3.71)"/><path class="cls-2" d="M1307.09,263.2s-2.44,4,2.8,6.55c2.86,1.38,5.81-1.81,5.81-1.81s2.75,3.65,6.27,2.42,3.06-5.68,3.06-5.68a5.58,5.58,0,0,0,7-1.82c2.82-3.92.47-7.55-2-8.16,0,0,3.81-2.18,2.71-5.69s-6.94-3.77-6.94-3.77.31-4-4.62-5.22a5.69,5.69,0,0,0-6.82,3.53s-4.57-2.69-7.2,1.36,1.31,7.1,1.31,7.1-5.84,1.18-5.64,6.28C1303,262,1307.09,263.2,1307.09,263.2Zm6.43-7.18a4.68,4.68,0,0,1,4.67-4.84c4.77-.15,5.53,3.57,5.79,4.86s.4,5.64-3.16,6.52C1314.28,264.19,1313.56,258,1313.52,256Z" transform="translate(1.54 3.71)"/><path class="cls-4" d="M1325.44,253.13c-2-4.44-7.35-3.2-8.88-2.54s-6,2.56-4.63,8.76a6,6,0,0,0,7.16,4.91C1321.52,263.73,1329.06,261.28,1325.44,253.13Z" transform="translate(1.54 3.71)"/><path class="cls-2" d="M1236.62,823.08c3.56,6.26,11.47,3.68,11.47,3.68s-2.25,8.81,6,12.71,13.89-2,14-7c0,0,5.41,6.47,11.37,3s4.21-14.67,4.21-14.67,7.41-.93,7.73-10.79a11,11,0,0,0-9-11.69s3.15-9.73-5.19-13.22-12.39,5.19-12.39,5.19-4.38-10.71-13.55-8.38c-6.74,1.7-7.29,10.06-7.29,10.06s-8.21-3.13-10.82,7.83c-1.43,6,5.5,10.39,5.5,10.39S1233.05,816.82,1236.62,823.08Zm17.38-5.77c-5.43-11.87,5.55-15.58,9.09-16.4,4-.93,9.19,1.08,10.56,7.07,2.09,9-4.39,11.9-6.62,12.88S1257,823.77,1254,817.31Z" transform="translate(1.54 3.71)"/><path class="cls-4" d="M1254,817.31c3,6.46,10.79,4.55,13,3.55s8.71-3.84,6.62-12.88c-1.38-6-6.54-8-10.56-7.07C1259.55,801.73,1248.57,805.44,1254,817.31Z" transform="translate(1.54 3.71)"/><path class="cls-2" d="M1013.78,56.67c4.6-6.21-1.16-13.21-1.16-13.21s9.47-1.34,9.86-11.29-7.63-13.34-12.58-11.41c0,0,4-8.18-1.76-12.82s-15.95,1.75-15.95,1.75-4-7.16-13.65-3.42c-10,3.85-7.62,14-7.62,14s-10.73.81-10.67,10.74,10.13,10.49,10.13,10.49-8.57,8.87-2.54,17.25C972.27,64.88,980.6,62,980.6,62s.35,9.65,12,7.8c6.38-1,7.8-9.89,7.8-9.89S1009.18,62.87,1013.78,56.67ZM1001,41.34c-9.27,10.42-17.39.76-19.65-2.5a9.83,9.83,0,0,1,2.5-13.68c7.9-5.84,13.34-.43,15.22,1.44S1006.06,35.66,1001,41.34Z" transform="translate(1.54 3.71)"/><path class="cls-4" d="M1001,41.34c5-5.68,0-12.87-1.92-14.74s-7.32-7.29-15.22-1.44a9.83,9.83,0,0,0-2.5,13.68C983.63,42.11,991.76,51.76,1001,41.34Z" transform="translate(1.54 3.71)"/><path class="cls-2" d="M949,134.75c1.61,2.83,5.18,1.66,5.18,1.66a5.05,5.05,0,0,0,2.69,5.74c3.71,1.76,6.28-.89,6.34-3.17,0,0,2.45,2.92,5.14,1.36s1.9-6.62,1.9-6.62,3.35-.42,3.49-4.88a5,5,0,0,0-4.06-5.28s1.42-4.39-2.35-6-5.59,2.34-5.59,2.34-2-4.83-6.12-3.78c-3,.77-3.3,4.55-3.3,4.55s-3.71-1.42-4.89,3.53c-.64,2.7,2.49,4.69,2.49,4.69S947.42,131.92,949,134.75Zm7.85-2.61c-2.45-5.36,2.51-7,4.11-7.41a4,4,0,0,1,4.77,3.19,4.61,4.61,0,0,1-3,5.82C961.76,134.19,958.22,135.06,956.88,132.14Z" transform="translate(1.54 3.71)"/><path class="cls-4" d="M956.88,132.14c1.34,2.92,4.88,2.05,5.89,1.6a4.6,4.6,0,0,0,3-5.82,4,4,0,0,0-4.77-3.19C959.39,125.1,954.43,126.78,956.88,132.14Z" transform="translate(1.54 3.71)"/><path class="cls-2" d="M1297.39,141.74c1.61,2.83,5.19,1.66,5.19,1.66a5,5,0,0,0,2.68,5.74c3.71,1.76,6.28-.89,6.35-3.17,0,0,2.44,2.92,5.13,1.36s1.9-6.62,1.9-6.62,3.35-.42,3.49-4.88a5,5,0,0,0-4.06-5.28s1.42-4.39-2.34-6-5.6,2.34-5.6,2.34-2-4.83-6.12-3.78c-3,.77-3.29,4.55-3.29,4.55s-3.71-1.42-4.89,3.53c-.65,2.7,2.48,4.69,2.48,4.69S1295.79,138.91,1297.39,141.74Zm7.86-2.61c-2.46-5.36,2.5-7,4.1-7.41a4,4,0,0,1,4.78,3.2,4.63,4.63,0,0,1-3,5.82C1310.12,141.18,1306.59,142.05,1305.25,139.13Z" transform="translate(1.54 3.71)"/><path class="cls-4" d="M1305.25,139.13c1.34,2.92,4.87,2.05,5.88,1.61a4.63,4.63,0,0,0,3-5.82,4,4,0,0,0-4.78-3.2C1307.75,132.09,1302.79,133.77,1305.25,139.13Z" transform="translate(1.54 3.71)"/><path class="cls-4" d="M1285.47,595.61c-5,.08-7.58,4.4-7.57,8.25,0,3.41,1,14.18,11.43,11.57,5.7-1.42,5.61-9,5.22-11.2S1293.07,595.51,1285.47,595.61Z" transform="translate(1.54 3.71)"/><path class="cls-4" d="M1276.06,556.86c1.89-.29,7.37-1.11,7.66-9.05.2-5.25-3.29-8.13-6.51-8.31-2.85-.16-11.91.3-10.25,11.34C1267.86,556.86,1274.17,557.14,1276.06,556.86Z" transform="translate(1.54 3.71)"/><path class="cls-4" d="M1222.57,550.44c3.91-2.59,2.21-8.16,1.44-9.71s-3-6.06-8.59-3.92a6.58,6.58,0,0,0-3.82,8.15C1212.35,547.48,1215.4,555.2,1222.57,550.44Z" transform="translate(1.54 3.71)"/><path class="cls-4" d="M1352.94,624.43c4.76-3.17,2.69-9.93,1.76-11.83s-3.65-7.38-10.47-4.78a8,8,0,0,0-4.65,9.93C1340.48,620.82,1344.2,630.22,1352.94,624.43Z" transform="translate(1.54 3.71)"/><path class="cls-4" d="M1368.71,298.78c4.12-2.74,2.33-8.6,1.52-10.24s-3.16-6.4-9.07-4.15a6.94,6.94,0,0,0-4,8.61C1357.92,295.65,1361.14,303.8,1368.71,298.78Z" transform="translate(1.54 3.71)"/><path class="cls-2" d="M1379.87,906.74c7.26-2.57,7.16-9.5,4.23-12.61,0,0,7.11.63,8.62-5s-6.25-11.32-6.25-11.32,3.89-5-1.83-11.1a9.34,9.34,0,0,0-12.4-1.63s-4-7.73-11-4.82-4.33,10.54-4.33,10.54-9.05-3.79-13.16,3.09c-3,5.06,1.66,10.41,1.66,10.41s-6.81,3-1.81,11.18c2.73,4.45,9.52,2.94,9.52,2.94" transform="translate(1.54 3.71)"/><path class="cls-2" d="M1366.58,893.48c-10.37-3.87-6-12.67-4.38-15.29a7.44,7.44,0,0,1,10.58-2.09c6.67,4.18,4.5,9.78,3.75,11.71S1372.22,895.58,1366.58,893.48Z" transform="translate(1.54 3.71)"/><path class="cls-2" d="M1296,882.27c4.4,1.21,6.79-3.48,6.79-3.48s2.94,5,8.36,3,5.34-7.1,3.15-9.43c0,0,5.31.48,6.44-3.73s-4.67-8.46-4.67-8.46,2.9-3.73-1.37-8.29a7,7,0,0,0-9.26-1.21s-2.94-5.77-8.24-3.6S1294,855,1294,855s-6.75-2.84-9.82,2.3c-2.26,3.78,1.23,7.78,1.23,7.78s-5.08,2.27-1.35,8.35c2,3.32,7.11,2.2,7.11,2.2S1291.59,881.07,1296,882.27Z" transform="translate(1.54 3.71)"/><path class="cls-4" d="M1301.2,871.91c4.22,1.57,6.88-2.79,7.44-4.23s2.18-5.62-2.8-8.74a5.55,5.55,0,0,0-7.9,1.55C1296.72,862.45,1293.46,869,1301.2,871.91Z" transform="translate(1.54 3.71)"/><path class="cls-4" d="M1367.62,894.25c6,2.47,9.52-3.52,10.23-5.52s2.72-7.8-4.48-12.5c-4.78-3.11-9.23-1.32-11,1.72C1360.72,880.63,1356.52,889.71,1367.62,894.25Z" transform="translate(1.54 3.71)"/><path class="cls-2" d="M1118.94,825.88c-4.74-3.86-10.2.61-10.2.61s-.93-7.66-8.61-8.21-10.37,5.82-9,9.85c0,0-6.25-3.45-9.9,1.1s1.16,12.88,1.16,12.88-5.57,3-2.79,10.9a9.34,9.34,0,0,0,10.7,6.49s.5,8.66,8.16,8.85,8.21-7.91,8.21-7.91,6.74,7.12,13.28,2.47c4.8-3.41,2.67-10.19,2.67-10.19s7.46-.05,6.15-9.51c-.69-5.17-7.53-6.52-7.53-6.52S1123.68,829.73,1118.94,825.88Zm-12,9.89c7.93,7.72.39,14-2.16,15.76a7.43,7.43,0,0,1-10.52-2.35c-4.42-6.5-.18-10.76,1.28-12.23S1102.64,831.57,1107,835.77Z" transform="translate(1.54 3.71)"/><path class="cls-2" d="M1252.22,903.36c3.59-2.55,2-7.62,2-7.62s5.57,0,4.59-7.1c-.52-3.86-5.62-4.87-5.62-4.87s1.78-5.19-1.76-8.07-7.62.46-7.62.46-.69-5.72-6.43-6.14-7.75,4.35-6.68,7.36c0,0-4.67-2.57-7.4.83s.88,9.62.88,9.62-4.16,2.24-2.09,8.14a7,7,0,0,0,8,4.84" transform="translate(1.54 3.71)"/><path class="cls-4" d="M1242.49,883.09c-3.23-3.14-7.42-.22-8.51.88s-4.26,4.27-1,9.13a5.54,5.54,0,0,0,7.85,1.75C1242.78,893.56,1248.42,888.85,1242.49,883.09Z" transform="translate(1.54 3.71)"/><path class="cls-4" d="M1106.32,834.65c-4.53-4.7-10.13-.62-11.58.93s-5.64,6-.93,13.25c3.12,4.77,7.91,4.92,10.8,2.87C1107.16,849.89,1114.66,843.27,1106.32,834.65Z" transform="translate(1.54 3.71)"/><path class="cls-2" d="M1164.09,875.39c2.85,5,9.16,2.93,9.16,2.93s-1.8,7,4.75,10.15,11.1-1.57,11.22-5.6c0,0,4.31,5.15,9.07,2.4s3.36-11.7,3.36-11.7,5.91-.75,6.17-8.61a8.8,8.8,0,0,0-7.18-9.34s2.51-7.76-4.15-10.54-9.89,4.14-9.89,4.14-3.5-8.55-10.82-6.7c-5.38,1.37-5.83,8-5.83,8s-6.55-2.5-8.63,6.25c-1.14,4.78,4.38,8.29,4.38,8.29S1161.24,870.39,1164.09,875.39Z" transform="translate(1.54 3.71)"/><path class="cls-4" d="M1178,870.78c2.36,5.16,8.62,3.64,10.4,2.85s7-3.08,5.29-10.29a7,7,0,0,0-8.43-5.65C1182.4,858.35,1173.63,861.31,1178,870.78Z" transform="translate(1.54 3.71)"/><path class="cls-3" d="M1092,900.84c-3.57-6.8-13.94-18-13.94-18l6.32-4c-6.79-4.64-20.2-9.68-20.2-9.68l4.38-4.14c-14.18-6.83-34.38-7.95-40.11,2.39-1.51-.62-3-1.24-4.54-1.82-1.36-.52-2.22,1.51-.86,2q2.26.87,4.52,1.82l-.13.36c-4.74,16,20.77,29,20.77,29" transform="translate(1.54 3.71)"/><path class="cls-3" d="M1067.65,906.37c.81-1.88-1.5-9.2-1.5-9.2,5.92,1.94,25.86,3.67,25.86,3.67" transform="translate(1.54 3.71)"/><path class="cls-3" d="M1048.22,898.84l-.39-5.38c6.75,5.51,19.82,12.91,19.82,12.91" transform="translate(1.54 3.71)"/><path class="cls-4" d="M1043.57,881.59c-1.82-2.47-3.62-5-5.43-7.42l2.61,1.26a1.11,1.11,0,0,0,1.09.55h0c2,1,3.9,1.95,5.84,2.94a1.56,1.56,0,0,0,.2.35l9,10.9c.92,1.11,2.71-.22,1.78-1.34q-3-3.68-6.08-7.34c5.65,3,11.26,6,16.85,9,1.3.68,2.14-1.36.86-2-2.93-1.53-5.86-3.11-8.8-4.67,1.86-.22,3.72-.45,5.58-.66a1.11,1.11,0,0,0-.33-2.2l-8.68,1c-4-2.14-8-4.26-12.09-6.31l10.52-1c1.45-.14,1.12-2.33-.33-2.19l-14,1.27c-4.55-2.24-9.14-4.36-13.79-6.3-1.5-.63-3-1.24-4.53-1.83-1.36-.52-2.23,1.52-.86,2s3,1.19,4.51,1.81q3.23,1.35,6.4,2.8a.75.75,0,0,0,.07.12l7.74,10.57A1.11,1.11,0,0,0,1043.57,881.59Z" transform="translate(1.54 3.71)"/><path class="cls-3" d="M994.24,823.87s-16.4-19.79-33.81-28c-10.34-4.89-17.7-6.93-24.14-6.94,7.85-3.28,15.65-6.59,23.43-9.79a1.65,1.65,0,0,0,.84-.69c2.26,1.75,6.51,4,12.88,2.69,16.15-3.2,30.12-30.09,30.12-30.09s-45.66,6.11-45,24.45a2.17,2.17,0,0,0-.88.16q-16.1,6.63-32.3,13c21.27-17.77,22.74-55.45,22.74-55.45-35.11,29.92-34.19,52.85-33,59.48l-2.15.85c-14,5.41-28,11.25-42.65,14.66-1,.24-2.09.46-3.14.68,8.41-5.94,24.64-21.42,27.76-53.84,0,0-41,18-33.3,54.92-16.78,2.93-33.81,3.34-50.91,3,26.58-9.75,43.74-57.48,43.74-57.48a106.13,106.13,0,0,0-39,23.35c-14.76,13.89-15.06,28.64-14.61,33.88l-3.92-.13c-6.27-.21-12.52-.5-18.77-.73,6.41-4.18,14.1-15.56,12.13-46.33,0,0-29.08,32.15-22.11,46-8.16-.18-16.3-.15-24.38.39,3.19-2.14,7.66-6.62,10.5-15.75,4.77-15.41,14.83-48.46,14.83-48.46S715.35,797,737.78,812.44a137.06,137.06,0,0,0-25.32,4.83,206.88,206.88,0,0,0-42.35,17.43c-2.21,1.26-.21,4.73,2,3.48A190,190,0,0,1,707.19,823c.06,2.74,1,13.5,11.7,22.12,12.34,9.94,30,11.49,30,11.49s-7.34-16.11-18.14-24.91c-9.75-7.93-17-8.61-22-9.18,3.36-1,6.73-2,10.11-2.87a151.46,151.46,0,0,1,30.75-4.15c-2,3-4.89,9.79.58,19.42C757.8,848.26,787.73,863,787.73,863s-13.63-39.19-29.53-47.76c12.37-.08,24.81.64,37.19,1.16a3.82,3.82,0,0,0-.56.28S787,830.31,799,857.11s27.47,34.78,27.47,34.78,5.37-26-5.74-55c-4.77-12.4-10.19-17.86-14.84-20.08,9.11.25,18.23.34,27.31,0,.05,6.27,1.23,26.71,14,40.57,15.19,16.54,47.5,38.23,47.5,38.23s-14.21-43.68-27.59-58c-9.8-10.51-23.42-17.81-30-21a191.85,191.85,0,0,0,32.84-4.27c.81,2.93,5,11.68,26.73,19.51,26.55,9.57,63.24,13,63.24,13s-21.89-23-45.17-31.55c-13.51-4.95-23.49-5.42-31.22-4.58,13.74-4.17,27.27-9.31,40.65-14.77.85,3.71,3.82,10.87,14.26,16.48,14.75,7.93,55.88,13.44,55.88,13.44" transform="translate(1.54 3.71)"/><path class="cls-2" d="M49.13,346.66s-.84,6.59,4.89,7.76,7.26-4.86,7.26-4.86,4.06,6.26,9.62,3.63c4.08-1.93,3.44-7.32,3.44-7.32s5.6,1,6-6.33c.19-4-4.74-5.93-4.74-5.93s2.76-4.92-.26-8.44-7.74-.9-7.74-.9.37-5.89-5.31-7.34-8.6,3-8.09,6.23c0,0-4.21-3.43-7.59-.49s-.92,9.85-.92,9.85S41,334.05,42,340.36A7.05,7.05,0,0,0,49.13,346.66Zm7.08-16.28c1.3-.91,6.06-3.1,8.71.63,4.88,6.87-1.66,10.61-3.82,11.58a5.62,5.62,0,0,1-7.56-3.17C51.13,333.93,54.91,331.3,56.21,330.38Z" transform="translate(1.54 3.71)"/><path class="cls-2" d="M124.24,288s3.92-6.23-4.24-10.33c-4.45-2.24-9.15,2.7-9.15,2.7s-4.21-5.8-9.77-4-4.93,8.84-4.93,8.84-6.53-3.42-11.05,2.66-.92,11.83,3,12.85c0,0-6,3.32-4.4,8.86s10.79,6.08,10.79,6.08-.59,6.28,7.1,8.3c8,2.09,10.79-5.36,10.79-5.36s7.1,4.33,11.32-1.95-1.88-11.16-1.88-11.16,9.19-1.71,9-9.7C130.71,290,124.24,288,124.24,288ZM114,299.1a7.34,7.34,0,0,1-7.44,7.47c-7.48.12-8.58-5.74-9-7.77s-.5-8.83,5.11-10.13C113,286.29,114,296,114,299.1Z" transform="translate(1.54 3.71)"/><path class="cls-2" d="M109.19,333.78c-5.13,1.3-6.09,10-6.09,10s-5.7-.88-7.92,6.38a8.64,8.64,0,0,0,4.34,10.61s-4.3,6.58,1.2,10.94S111,370.5,111,370.5s1.1,8.88,8.39,9.11c5.36.15,7.46-5.95,7.46-5.95s5.49,4.07,9.63-3.52c2.27-4.16-2-8.91-2-8.91s5.49-3.75,4.1-9.16-7.8-5.17-7.8-5.17,3.45-6.08-1.87-10.72-10.73-1.47-11.86,2.25C117.05,338.43,114.33,332.47,109.19,333.78Zm6.32,13.49c1.85-.27,8.07,0,9,5.41,1.65,10-7.27,10.41-10.08,10.27a6.86,6.86,0,0,1-6.43-7.49C108.25,348.29,113.64,347.53,115.51,347.27Z" transform="translate(1.54 3.71)"/><path class="cls-2" d="M163.9,342.28c-3.69,2.74-1.57,7.77-1.57,7.77a6.89,6.89,0,0,0-7.55,4.71c-1.92,5.63,2.11,9,5.27,8.76,0,0-3.69,4-1.16,7.65s9.42,1.83,9.42,1.83,1.05,4.8,7.23,4.39c6.38-.44,6.72-6.65,6.72-6.65s6.27,1.44,7.92-4.25-4-7.8-4-7.8,6.4-3.55,4.37-9.42c-1.5-4.31-6.75-4.14-6.75-4.14s1.43-5.59-5.57-6.61c-3.82-.55-6.14,4.27-6.14,4.27S167.58,339.54,163.9,342.28Zm4.71,11c7.06-4.32,10.08,2.64,10.82,4.92a5.81,5.81,0,0,1-3.74,7.37c-5.52,1.95-7.72-2.12-8.47-3.52S164.77,355.67,168.61,353.32Z" transform="translate(1.54 3.71)"/><path class="cls-2" d="M217.56,373.77c-3.88,2.88-1.64,8.18-1.64,8.18s-6-1-8,5,2.24,9.48,5.57,9.25c0,0-3.89,4.18-1.23,8.07s9.94,1.93,9.94,1.93,1.11,5.07,7.63,4.63c6.73-.45,7.09-7,7.09-7s6.62,1.52,8.36-4.49-4.25-8.22-4.25-8.22,6.75-3.75,4.6-9.94c-1.57-4.55-7.11-4.37-7.11-4.37s1.51-5.9-5.88-7c-4-.58-6.48,4.5-6.48,4.5S221.44,370.88,217.56,373.77Zm5,11.64c7.44-4.56,10.63,2.8,11.41,5.19a6.14,6.14,0,0,1-3.95,7.79c-5.81,2.05-8.13-2.25-8.93-3.72S218.47,387.89,222.53,385.41Z" transform="translate(1.54 3.71)"/><path class="cls-2" d="M34.3,266.12c-4.48,3.34-1.9,9.46-1.9,9.46s-6.88-1.12-9.21,5.74,2.58,10.94,6.43,10.67c0,0-4.49,4.82-1.41,9.32s11.47,2.22,11.47,2.22,1.28,5.85,8.8,5.35c7.78-.52,8.19-8.09,8.19-8.09s7.65,1.75,9.65-5.18-4.9-9.5-4.9-9.5,7.8-4.33,5.32-11.48c-1.81-5.25-8.21-5-8.21-5s1.74-6.81-6.79-8c-4.66-.68-7.48,5.2-7.48,5.2S38.78,262.78,34.3,266.12ZM40,279.56c8.6-5.25,12.28,3.23,13.18,6a7.08,7.08,0,0,1-4.56,9c-6.71,2.36-9.39-2.59-10.32-4.3S35.36,282.43,40,279.56Z" transform="translate(1.54 3.71)"/><path class="cls-2" d="M369.6,814.22s7.31,3.57,10.6-6.27c1.79-5.38-4.21-10-4.21-10s5.67-5.62,2.91-11.69-10.26-4.36-10.26-4.36,2.78-7.91-4.45-12.2-12.94.63-13.49,5.25c0,0-4.44-6.4-10.21-3.75s-5.06,13.14-5.06,13.14-6.89.22-8,9.25a10.24,10.24,0,0,0,7.32,11.52s-3.68,8.68,3.71,12.6S350.3,814,350.3,814s3.14,10.22,11.77,8.87C368.41,821.85,369.6,814.22,369.6,814.22Zm-13.46-10.1c-3.76.51-8.35-1.79-9.13-7.41-1.18-8.5,5-10.57,7.14-11.29s9.5-1.8,11.7,4.39C369.88,801.18,359.47,803.66,356.14,804.12Z" transform="translate(1.54 3.71)"/><path class="cls-3" d="M278.86,902.55s4.14-25.17-1-43.58c-3.07-10.93-6.34-17.76-10.53-22.59,7.57,3.73,15.13,7.43,22.6,11.17a1.78,1.78,0,0,0,1.07.18c.15,2.82,1.27,7.44,6.37,11.39,12.91,10,42.15,3,42.15,3s-34.32-30.21-47.6-17.75a2.27,2.27,0,0,0-.69-.55q-15.45-7.74-30.78-15.73c27.17,4.36,56.35-19.08,56.35-19.08-45.28-6.8-61.86,8.81-66,14l-2-1.06c-13.16-7-26.64-13.61-38.76-22.39-.86-.62-1.71-1.27-2.56-1.91,9.93,2.43,32.09,4.5,58.41-14.28,0,0-40.2-19-62.82,10.83-13.13-10.65-24.53-23.15-35.42-36.17,24.62,13.56,71.55-4.68,71.55-4.68a105.24,105.24,0,0,0-42.88-14c-20-2-31.26,7.38-34.9,11.12-.81-1-1.64-2-2.45-3-3.92-4.83-7.78-9.7-11.68-14.53,7.31,2.08,20.84.43,42.61-21.09,0,0-43-.84-48.89,13.42-5.18-6.23-10.5-12.3-16.17-18,3.69,1,10,1.42,18.64-2.4,14.65-6.47,46-20.46,46-20.46s-72-8.22-69,18.62a135.1,135.1,0,0,0-20.12-15.82,204.92,204.92,0,0,0-40.64-20.37c-2.38-.84-3.67,2.93-1.3,3.77A189.14,189.14,0,0,1,92.55,687c-2,1.84-9.46,9.56-9,23.17.59,15.73,11,30,11,30s7.28-16,6.84-29.82c-.4-12.47-4.59-18.31-7.46-22.47,3,1.83,5.89,3.73,8.73,5.7a150.27,150.27,0,0,1,23.14,20.33c-3.58.45-10.52,2.71-14.17,13.08-5,14.38,3.37,46.43,3.37,46.43s20.47-35.74,16.54-53.23c8.11,9.21,15.68,19,23.35,28.61a4.76,4.76,0,0,0-.57-.24s-15.3,3-27.57,29.4-8.16,43.23-8.16,43.23,23-12.95,37.46-40.13c6.19-11.65,6.75-19.27,5.38-24.19,5.74,7,11.62,13.87,17.78,20.46-4.67,4.12-19.21,18.33-21.3,36.88-2.49,22.15,2.3,60.48,2.3,60.48s23.46-39.1,25.48-58.45c1.48-14.19-1.91-29.15-3.83-36.12a191.45,191.45,0,0,0,24.59,21.83c-1.66,2.51-5.49,11.35,2.8,32.72,10.13,26.12,31.48,55.81,31.48,55.81s3-31.39-5.79-54.38c-5.1-13.35-11.24-21.13-16.9-26.38,12.07,7.58,24.73,14.36,37.53,20.84-2.22,3.05-5.64,9.94-3.05,21.41,3.67,16.21,26.33,50.61,26.33,50.61" transform="translate(1.54 3.71)"/><path class="cls-3" d="M46.53,433c-10.87-11.74-21.12-24.15-31.41-36.18-1.91-2.24-5.57.42-3.64,2.67,4.57,5.34,9.14,10.76,13.75,16.15a255.43,255.43,0,0,0-7.38,44.2c-4,2.6-12.09,10-16.65,28.51,0,0,10.39-6.7,15.83-16.44-.75,14.18-.74,28.4-.44,42.33a17,17,0,0,1,1.77-.08,14.66,14.66,0,0,1,2.72.27c-.21-9.94-.29-20.06,0-30.23,3.31,7.92,12.7,15.34,12.7,15.34a38,38,0,0,0-12.56-20.1c.69-20.23,2.77-40.52,7.63-59.65a424.12,424.12,0,0,0,29.91,31.88C49.75,472,50.27,496.09,53,518a264,264,0,0,0,6.57,35.24c.17-.06.32-.14.49-.21a13.13,13.13,0,0,1,3.9-.73,242.1,242.1,0,0,1-6.47-34.75c-.31-2.61-.59-5.25-.82-7.89,7.75,11.84,23.88,16.77,23.88,16.77-10.39-14.68-20-19.64-24.24-21.21-1.22-17-.48-34.59,6-50.2a200.92,200.92,0,0,0,20.5,16.43,2.77,2.77,0,0,0,0,.71c1.4,12.65,7.17,24.9,12.73,36.17,7.47,15.14,15.92,29.76,24.77,44.1q4.32,7,8.75,14c-10.13,16.92-2.26,40.3-2.26,40.3,7.22-14.19,6.38-28.26,5-36q10,15.57,20.67,30.73a25.39,25.39,0,0,1,4-2.2q-16-22.75-30.68-46.47-1.75-2.82-3.49-5.65c17.73,12.38,37.64,10.12,37.64,10.12-15.47-11.57-33.4-13.25-39.68-13.48-7-11.59-13.79-23.36-19.79-35.52-5.16-10.46-10.73-21.75-12.69-33.42.52.33,1,.68,1.56,1a257.07,257.07,0,0,0,29.89,16.1c1.77,13.08,19,22.55,19,22.55a46.55,46.55,0,0,0-14.71-20.61,253.94,253.94,0,0,0,45.11,14.93c0-.7.08-1.4.19-2.13s.28-1.64.47-2.42A251.33,251.33,0,0,1,88,469.58C74.11,460.37,61.72,449,50.11,436.8c17.79-4.27,38.32-.72,56.18,2.26A17.24,17.24,0,0,0,115.71,454a21.89,21.89,0,0,0-6.06-14.35c11.4,1.92,22.78,4.14,34,6.89a1.43,1.43,0,0,0,0-.22,19.09,19.09,0,0,1,.06-4.49c-13.2-3.21-26.58-5.79-40-7.79-4.41-.65-9-1.35-13.62-2,10.93-4.36,16.54-16.3,16.54-16.3-15.34.1-20.65,10.88-22.25,15.63a151.27,151.27,0,0,0-16.44-1c6.77-16.58,22.33-28.68,38.76-34.63a10.16,10.16,0,0,1-1.29-3.39c-.07-.34-.11-.67-.15-1a79.34,79.34,0,0,0-17.08,8.55c2.22-3.24,5.34-8.93,4.11-14.13,0,0-6.34,5.19-6.17,15.52C75.81,408.64,67.3,418.58,63,430.49A73.67,73.67,0,0,0,46.53,433Z" transform="translate(1.54 3.71)"/><path class="cls-4" d="M61.1,342.59c2.16-1,8.7-4.71,3.82-11.58-2.65-3.73-7.41-1.53-8.71-.63s-5.08,3.55-2.67,9A5.62,5.62,0,0,0,61.1,342.59Z" transform="translate(1.54 3.71)"/><path class="cls-4" d="M222.53,385.41c-4.05,2.48-2.28,7.78-1.47,9.26s3.12,5.77,8.93,3.72a6.14,6.14,0,0,0,3.95-7.79C233.16,388.21,230,380.85,222.53,385.41Z" transform="translate(1.54 3.71)"/><path class="cls-4" d="M347,796.71c.78,5.62,5.37,7.92,9.13,7.41,3.33-.46,13.74-2.94,9.71-14.31-2.2-6.19-9.57-5.11-11.7-4.39S345.83,788.21,347,796.71Z" transform="translate(1.54 3.71)"/><path class="cls-5" d="M168.79,506.56c-.1.72-.15,1.42-.19,2.12C167.2,534.5,211.11,540,211.11,540l-7-14.3,22.14-8.65L205.4,500.87l9.94-15.75s-40-5.85-46.08,19C169.07,504.91,168.91,505.71,168.79,506.56Z" transform="translate(1.54 3.71)"/><path class="cls-5" d="M18.37,514.13a17,17,0,0,0-1.77.08C-6.73,515.83.88,551.36.88,551.36l9.46-4.54L16.4,559,24,548.38l10.85,4.1s3.65-34.72-13.77-38.08A14.47,14.47,0,0,0,18.37,514.13Z" transform="translate(1.54 3.71)"/><path class="cls-5" d="M180.72,437.51l8.4-12.53s-42.53-4.75-45.43,16.83a19.07,19.07,0,0,0-.06,4.49,1.91,1.91,0,0,0,0,.21C146.56,473,187.36,473,187.36,473l-9.88-13.17,20.58-7.95Z" transform="translate(1.54 3.71)"/><path class="cls-5" d="M196.76,635.83s-19.53-45.26-39.45-37.12l-.91.41a26.7,26.7,0,0,0-4,2.19c-22.13,15-.67,55.24-.67,55.24l7.08-14.62,20.24,14,0-22.51Z" transform="translate(1.54 3.71)"/><path class="cls-5" d="M94.12,591.27s-12.25-39.58-30.19-39A13.09,13.09,0,0,0,60,553l-.49.2c-23.94,9.19-5.45,51.07-5.45,51.07l9.47-10.15,13.37,13.31L81,587.94Z" transform="translate(1.54 3.71)"/><path class="cls-3" d="M29.57,232.38a113.54,113.54,0,0,0,.15,24.24,1,1,0,0,0,2-.26,103.51,103.51,0,0,1-.49-20.23A14.68,14.68,0,0,0,43.92,235c7-3.94,11.14-12.23,11.14-12.23s-9,.22-15.2,3.65a18.7,18.7,0,0,0-8.52,8.82c.14-1.87.32-3.7.56-5.53a81.76,81.76,0,0,1,3.9-15.83c1,1.61,3.69,4.41,9.27,3.75,7.74-.91,20.43-12.41,20.43-12.41s-21.09-1.52-28.16,4.44c2.31-6,5-11.94,7.63-17.86a2.22,2.22,0,0,0,0,.33s4.92,6.65,19.84,6.39,21.63-6.13,21.63-6.13a54.37,54.37,0,0,0-27-8.65c-6.76-.26-10.37,1.24-12.3,3,1.86-4.39,3.63-8.81,5.2-13.3,3,1.28,12.85,5,21.8,1.66,10.7-4,27.08-15.18,27.08-15.18s-23.3-2.17-32.61,1.36C61.77,164,55.74,169.06,53,171.6a103.68,103.68,0,0,0,4.26-16.87c1.53.21,6.46,0,14.28-9,9.58-10.93,18.17-28.09,18.17-28.09s-15,5.87-23.49,15.43c-4.92,5.56-7,10.31-8.11,14.25.64-7.56.8-15.22.78-22.86,1.91.35,5.85.4,10.49-3.52,6.54-5.53,17-24.41,17-24.41s-12.46,3.87-19.66,10.63c-4.28,4-6.64,7.18-7.87,10.31,0-4.5-.13-9-.16-13.44a1,1,0,0,0-.16-.55,7.93,7.93,0,0,0,3.72-5.71c1.56-8.52-8.46-20.91-8.46-20.91s-5.81,23.49,3,27a1,1,0,0,0-.1.46c0,6.15,0,12.29,0,18.43-4.34-14-21.83-22.6-21.83-22.6,7.44,23.32,18.42,27.63,21.78,28.42,0,.42,0,.82,0,1.23-.11,7.94,0,15.94-1.21,23.81-.08.56-.18,1.12-.27,1.67C53.87,150,49.67,138.83,35,130.57c0,0,.69,23.71,19.57,27.64a141.69,141.69,0,0,1-8.27,25.4c.46-15-18.79-33.25-18.79-33.25a58.65,58.65,0,0,0,3.59,23.84c3.74,10.07,10.64,13.28,13.2,14.16l-.81,1.88c-1.29,3-2.62,6-3.92,9-.75-4-4.65-10.11-19.54-15.55,0,0,9.63,20.84,17.51,20.34C35.85,208,34.32,211.92,33,216c-.39-2-1.65-5.11-5.42-8.39-6.36-5.53-20-17.29-20-17.29s13,36.47,24.56,28.75A73,73,0,0,0,29.57,232.38Z" transform="translate(1.54 3.71)"/><path class="cls-2" d="M308,266.26c1.23-5.78-4.91-8.7-4.91-8.7s6.09-4,3.26-11-9.41-6.68-12.21-3.73c0,0,.22-6.94-5.21-8.24S278.49,241,278.49,241s-4.95-3.63-10.45,2.11c-5.69,5.93-.89,12.12-.89,12.12s-7.13,4.07-4,10.88S273.4,270,273.4,270s-3.13,8.91,3.63,12.71c5,2.79,9.8-1.92,9.8-1.92s3.25,6.52,10.72,1.42c4.08-2.79,2.29-9.35,2.29-9.35S306.76,272,308,266.26Z" transform="translate(1.54 3.71)"/><path class="cls-2" d="M231.3,74.14s-2.75,28.59,5.08,56.82a176.41,176.41,0,0,1,18.45,24.53l.43-.27a148.32,148.32,0,0,1,.42-26.14l-.53-.07S246.48,91.28,231.3,74.14Z" transform="translate(1.54 3.71)"/><path class="cls-2" d="M160,113.25c6.22,16.56,38.88,43.69,38.88,43.69a314.77,314.77,0,0,1,38,12.25S229.2,162.1,220,149l-.18.14C202.3,129.3,160,113.25,160,113.25Z" transform="translate(1.54 3.71)"/><path class="cls-2" d="M181.44,182.16c-20.78.61-51.16,13.16-51.16,13.16,15.48,14.48,74.69,8.57,74.69,8.57a195.56,195.56,0,0,1,29.36-6.47,50.52,50.52,0,0,1,5-10.58c-4.79-1.87-33.39-4.88-54-4.74C184,182.1,182.69,182.13,181.44,182.16Z" transform="translate(1.54 3.71)"/><path class="cls-2" d="M231.69,215.35l-.62-1.6a59.58,59.58,0,0,0-20,10.5c-21.54,16.52-35.82,44.24-35.82,44.24,41.37-16.38,58-42.75,58-42.75A42.37,42.37,0,0,1,231.69,215.35Z" transform="translate(1.54 3.71)"/><path class="cls-3" d="M366.75,75.77c1.06-1-.59-2.43-1.64-1.49q-4.37,3.93-8.7,7.9l-.15-.22c-14.31-18.48-44.2,6-44.2,6,2.37,1.86,8.73,1.77,8.73,1.77-8.12,4.65-25.1,26.59-25.1,26.59,4.05,1.63,11.93-.22,11.93-.22-6.65,4.17-18.4,32.79-18.4,32.79,8.63,1.24,30.93-14.94,30.93-14.94,1,2.07-2.93,15.21-2.93,15.21,6-2.21,15.47-17.26,15.47-17.26l1.14,8.92a44.82,44.82,0,0,0,14.08-14.31c5.14-8.66,15.31-30.82,9.68-42.39Q362.15,79.92,366.75,75.77Z" transform="translate(1.54 3.71)"/><path class="cls-4" d="M294.44,259.89c1.7-5.56-4-8.85-5.91-9.52s-7.31-2.61-10.93,4a7.45,7.45,0,0,0,2.54,10.23C282.72,266.11,291.31,270.1,294.44,259.89Z" transform="translate(1.54 3.71)"/><path class="cls-4" d="M270.76,161.29a94.43,94.43,0,0,0-10.13,5.33h0a73.2,73.2,0,0,0-10.79,7.93,57.94,57.94,0,0,0-10.49,12.28,50.37,50.37,0,0,0-7.65,28.52,42.56,42.56,0,0,0,1.48,10.38s25.83,8.39,40.76-17.46S270.75,161.29,270.76,161.29Z" transform="translate(1.54 3.71)"/><path class="cls-4" d="M307.44,132.52q9.65-9.8,19.49-19.4l-3.28,9.94c-.45,1.37,1.7,1.79,2.15.44l4.5-13.68q6.36-6.16,12.79-12.24a121.88,121.88,0,0,1-7.34,25.18c-.55,1.33,1.4,2.34,2,1a123.65,123.65,0,0,0,8-28.66q5.91-5.53,11.87-11,4.56-4.18,9.17-8.33c1.06-1-.6-2.43-1.64-1.49-2.92,2.62-5.81,5.25-8.7,7.9l-5.29,4.87-18.68,0c-1.41,0-1.24,2.24.16,2.24l16.1,0q-7.32,6.83-14.54,13.75h-.09l-14.76,0c-1.41,0-1.24,2.23.16,2.24l12.39,0Q318.66,118,305.81,131C304.8,132.05,306.45,133.54,307.44,132.52Z" transform="translate(1.54 3.71)"/><path class="cls-6" d="M260.62,166.62a92.66,92.66,0,0,1,10.13-5.34s9.37-40.93-3.69-81.32a203.24,203.24,0,0,0-11.38,49.11,148.32,148.32,0,0,0-.42,26.14l-.44.28A90.66,90.66,0,0,1,260.62,166.62Z" transform="translate(1.54 3.71)"/><path class="cls-6" d="M254.82,155.49A176.4,176.4,0,0,0,236.38,131c-20.08-22.81-43.46-41.19-43.46-41.19A175,175,0,0,0,220,149c9.2,13.08,16.84,20.17,16.84,20.17,7.91,3.09,13,5.37,13,5.37a74.28,74.28,0,0,1,10.79-7.93h0A90.66,90.66,0,0,0,254.82,155.49Z" transform="translate(1.54 3.71)"/><path class="cls-6" d="M236.84,169.19a314.77,314.77,0,0,0-38-12.25c-1.64-.39-3.27-.78-4.9-1.13-27.31-5.88-56.61-6.95-56.61-6.95,10.19,12.35,48,33.24,48,33.24,20.67-.14,49.26,2.87,54,4.74a57.13,57.13,0,0,1,10.49-12.28S244.75,172.28,236.84,169.19Z" transform="translate(1.54 3.71)"/><path class="cls-6" d="M234.33,197.42A195.29,195.29,0,0,0,205,203.89a204.57,204.57,0,0,0-24.57,9.54c-19.2,8.78-34.71,25.41-34.71,25.41,40.2-3.13,65.35-14.59,65.35-14.59a59.28,59.28,0,0,1,20-10.49l.62,1.6A51,51,0,0,1,234.33,197.42Z" transform="translate(1.54 3.71)"/><path class="cls-2" d="M83.46,834.54c-3.8-6.64-12.18-3.88-12.18-3.88s2.36-9.36-6.35-13.46S50.19,819.33,50,824.67c0,0-5.74-6.83-12.06-3.17s-4.44,15.57-4.44,15.57-7.85,1-8.17,11.47C25,859.36,35,860.92,35,860.92s-3.31,10.34,5.54,14,13.14-5.54,13.14-5.54,4.68,11.34,14.41,8.86c7.14-1.83,7.7-10.7,7.7-10.7s8.73,3.29,11.47-8.34c1.51-6.35-5.86-11-5.86-11S87.27,841.17,83.46,834.54ZM65,840.7c5.8,12.58-5.85,16.54-9.6,17.43-4.26,1-9.75-1.12-11.23-7.48-2.24-9.58,4.63-12.64,7-13.7S61.87,833.85,65,840.7Z" transform="translate(1.54 3.71)"/><path class="cls-4" d="M43.91,849.61c.94,6.78,6.47,9.54,11,8.93,4-.55,16.56-3.54,11.7-17.24-2.64-7.46-11.52-6.16-14.09-5.3S42.48,839.37,43.91,849.61Z" transform="translate(1.54 3.71)"/><path class="cls-3" d="M63.48,711.77a79.06,79.06,0,0,0,4-16.5.72.72,0,0,0-1.42-.19A73.47,73.47,0,0,1,63,708.92a10.36,10.36,0,0,0-8.8-1.53c-5.45,1.42-9.66,6.32-9.66,6.32s6.15,1.46,11,.25a13,13,0,0,0,7.31-4.46c-.42,1.24-.86,2.46-1.33,3.65a56.65,56.65,0,0,1-5.36,10.06c-.43-1.28-1.75-3.66-5.66-4.22-5.42-.77-16,4.77-16,4.77s14.07,4.82,19.9,2c-2.6,3.68-5.46,7.22-8.24,10.77,0-.15,0-.23,0-.23s-2.21-5.4-12.39-7.91-15.75.29-15.75.29a38.78,38.78,0,0,0,16.89,10.73c4.56,1.39,7.26,1,8.88.14-2,2.64-4,5.33-5.8,8.1-1.8-1.4-7.89-5.68-14.54-5-7.94.77-21,5.45-21,5.45s15.47,5.66,22.39,4.93a36,36,0,0,0,12.36-4.16,71.68,71.68,0,0,0-5.77,10.71c-1-.42-4.39-1.16-11.25,3.52C11.78,768.81,3,778.93,3,778.93s11.22-1.29,18.6-6.27a24.21,24.21,0,0,0,8-8.22c-1.73,5-3.15,10.19-4.44,15.39-1.24-.58-3.91-1.32-7.73.51C12,782.92,1.68,793.88,1.68,793.88s9.13-.4,15.18-3.7c3.59-2,5.73-3.69,7.1-5.6-.73,3.07-1.44,6.13-2.19,9.17a.7.7,0,0,0,0,.41,5.43,5.43,0,0,0-3.5,3.2c-2.52,5.52,2.17,15.74,2.17,15.74s8-14.92,2.59-18.86a.7.7,0,0,0,.14-.3q1.53-6.27,3.16-12.52c.55,10.33,11,19.28,11,19.28-1.07-17.18-7.8-22.08-9.95-23.23.08-.27.14-.55.22-.82,1.43-5.38,2.73-10.84,4.89-16,.15-.37.31-.72.47-1.08-.09,3.84.87,12.14,9.45,20.4,0,0,3.58-16.24-8.57-22.29a97.55,97.55,0,0,1,10-15.78c-2.87,10.09,7.08,26,7.08,26a41.1,41.1,0,0,0,1.63-16.84c-.82-7.51-5-10.94-6.54-12,.28-.38.58-.76.86-1.13,1.4-1.82,2.81-3.61,4.21-5.41-.17,2.86,1.43,7.7,10.63,14.07,0,0-3-15.89-8.43-17,1.79-2.38,3.51-4.8,5.08-7.32A10.78,10.78,0,0,0,60.57,729c3.38,4.9,10.66,15.35,10.66,15.35s-2.61-27.12-11.77-24A51.68,51.68,0,0,0,63.48,711.77Z" transform="translate(1.54 3.71)"/><path class="cls-2" d="M34.53,620.92s4.13,2,6-3.55c1-3-2.38-5.67-2.38-5.67s3.21-3.18,1.64-6.61-5.8-2.47-5.8-2.47,1.57-4.48-2.52-6.91-7.32.36-7.63,3c0,0-2.51-3.63-5.78-2.13S15.19,604,15.19,604s-3.9.12-4.52,5.23a5.79,5.79,0,0,0,4.15,6.52s-2.09,4.91,2.09,7.13,6.69-2.1,6.69-2.1,1.78,5.78,6.67,5C33.85,625.24,34.53,620.92,34.53,620.92Zm-7.62-5.72A4.6,4.6,0,0,1,21.74,611c-.67-4.8,2.83-6,4-6.39s5.38-1,6.62,2.49C34.68,613.55,28.8,615,26.91,615.2Z" transform="translate(1.54 3.71)"/><path class="cls-2" d="M85.16,638.08s2.41-4-2.8-6.49c-2.84-1.37-5.76,1.81-5.76,1.81s-2.74-3.62-6.23-2.39-3,5.65-3,5.65a5.54,5.54,0,0,0-7,1.82c-2.79,3.9-.44,7.5,2.06,8.1,0,0-3.78,2.17-2.68,5.65s6.9,3.73,6.9,3.73-.3,4,4.59,5.17A5.67,5.67,0,0,0,78,657.61s4.54,2.65,7.14-1.37-1.31-7-1.31-7S89.64,648,89.43,643C89.27,639.23,85.16,638.08,85.16,638.08Zm-6.37,7.14A4.64,4.64,0,0,1,74.17,650c-4.73.16-5.5-3.53-5.76-4.81s-.41-5.59,3.12-6.48C78,637.12,78.75,643.27,78.79,645.22Z" transform="translate(1.54 3.71)"/><path class="cls-4" d="M67,648.12c2,4.4,7.3,3.16,8.82,2.5s5.93-2.55,4.57-8.7a5.94,5.94,0,0,0-7.12-4.86C70.83,637.59,63.36,640,67,648.12Z" transform="translate(1.54 3.71)"/><path class="cls-2" d="M153.76,82.18c-3.55-6.21-11.39-3.63-11.39-3.63s2.21-8.76-5.94-12.6-13.78,2-13.92,7c0,0-5.39-6.4-11.29-3s-4.15,14.57-4.15,14.57-7.35.94-7.64,10.73a10.93,10.93,0,0,0,8.95,11.58s-3.1,9.67,5.19,13.11,12.29-5.18,12.29-5.18,4.37,10.62,13.47,8.29c6.68-1.71,7.21-10,7.21-10s8.15,3.09,10.72-7.8c1.4-5.94-5.48-10.3-5.48-10.3S157.31,88.38,153.76,82.18Zm-17.24,5.76c5.42,11.77-5.47,15.48-9,16.31-4,.93-9.13-1-10.51-7-2.09-9,4.33-11.82,6.54-12.8S133.56,81.54,136.52,87.94Z" transform="translate(1.54 3.71)"/><path class="cls-4" d="M136.52,88c-3-6.41-10.72-4.49-13-3.5s-8.63,3.84-6.54,12.8c1.39,5.94,6.52,7.93,10.51,7C131.05,103.42,141.94,99.71,136.52,88Z" transform="translate(1.54 3.71)"/><path class="cls-2" d="M376.8,842.38c-4.56,6.18,1.18,13.1,1.18,13.1s-9.4,1.36-9.76,11.24,7.61,13.22,12.51,11.3c0,0-4,8.12,1.79,12.72S398.34,889,398.34,889s4,7.1,13.55,3.37c9.94-3.85,7.54-13.9,7.54-13.9s10.64-.82,10.56-10.68-10.08-10.38-10.08-10.38,8.49-8.83,2.48-17.14c-4.41-6.1-12.67-3.22-12.67-3.22s-.37-9.58-12-7.71c-6.33,1-7.72,9.83-7.72,9.83S381.35,836.21,376.8,842.38Zm12.69,15.19c9.18-10.37,17.26-.8,19.51,2.43a9.75,9.75,0,0,1-2.45,13.58c-7.82,5.82-13.24.46-15.11-1.39S384.51,863.22,389.49,857.57Z" transform="translate(1.54 3.71)"/><path class="cls-4" d="M389.5,857.57c-5,5.65.07,12.77,1.94,14.62s7.28,7.22,15.11,1.39A9.76,9.76,0,0,0,409,860C406.76,856.76,398.67,847.2,389.5,857.57Z" transform="translate(1.54 3.71)"/><path class="cls-2" d="M440.88,764.73c-1.61-2.81-5.15-1.64-5.15-1.64s1-4-2.68-5.69-6.23.89-6.29,3.15c0,0-2.43-2.89-5.1-1.33s-1.87,6.58-1.87,6.58-3.32.42-3.46,4.84a5,5,0,0,0,4.05,5.24s-1.4,4.36,2.34,5.92,5.55-2.34,5.55-2.34,2,4.79,6.09,3.74c3-.77,3.26-4.52,3.26-4.52s3.68,1.4,4.84-3.52c.63-2.68-2.48-4.65-2.48-4.65S442.48,767.53,440.88,764.73Zm-7.79,2.6c2.45,5.32-2.47,7-4.06,7.36a3.92,3.92,0,0,1-4.74-3.15,4.59,4.59,0,0,1,2.95-5.79C428.25,765.3,431.75,764.44,433.09,767.33Z" transform="translate(1.54 3.71)"/><path class="cls-4" d="M433.09,767.33c-1.34-2.89-4.84-2-5.85-1.58a4.58,4.58,0,0,0-2.95,5.79,3.92,3.92,0,0,0,4.74,3.15C430.62,774.32,435.54,772.65,433.09,767.33Z" transform="translate(1.54 3.71)"/><path class="cls-2" d="M95.07,758.63c-1.6-2.81-5.14-1.64-5.14-1.64a5,5,0,0,0-2.69-5.69c-3.68-1.74-6.22.89-6.28,3.16,0,0-2.44-2.9-5.1-1.34S74,759.7,74,759.7s-3.32.42-3.45,4.84a5,5,0,0,0,4,5.24s-1.39,4.36,2.35,5.92,5.55-2.34,5.55-2.34,2,4.79,6.08,3.74c3-.77,3.26-4.52,3.26-4.52s3.69,1.4,4.85-3.52c.63-2.68-2.48-4.65-2.48-4.65S96.68,761.43,95.07,758.63Zm-7.78,2.6c2.44,5.32-2.48,7-4.06,7.37a3.94,3.94,0,0,1-4.75-3.16,4.6,4.6,0,0,1,3-5.79C82.44,759.2,86,758.34,87.29,761.23Z" transform="translate(1.54 3.71)"/><path class="cls-4" d="M87.29,761.23c-1.34-2.89-4.85-2-5.85-1.58a4.6,4.6,0,0,0-3,5.79,3.94,3.94,0,0,0,4.75,3.16C84.81,768.22,89.73,766.55,87.29,761.23Z" transform="translate(1.54 3.71)"/><path class="cls-4" d="M105.81,308.07c5-.08,7.52-4.37,7.5-8.2,0-3.38-1-14.07-11.38-11.46-5.65,1.43-5.54,8.91-5.15,11.13S98.27,308.2,105.81,308.07Z" transform="translate(1.54 3.71)"/><path class="cls-4" d="M115.25,346.52c-1.87.29-7.31,1.12-7.58,9-.18,5.21,3.28,8.07,6.48,8.24,2.83.15,11.82-.33,10.15-11.29C123.39,346.5,117.12,346.23,115.25,346.52Z" transform="translate(1.54 3.71)"/><path class="cls-4" d="M168.36,352.77c-3.88,2.58-2.17,8.09-1.41,9.63s3,6,8.54,3.87a6.53,6.53,0,0,0,3.77-8.1C178.51,355.68,175.47,348,168.36,352.77Z" transform="translate(1.54 3.71)"/><path class="cls-4" d="M38.77,279.64c-4.71,3.15-2.65,9.86-1.71,11.74s3.64,7.32,10.4,4.72a8,8,0,0,0,4.6-9.87C51.15,283.19,47.44,273.87,38.77,279.64Z" transform="translate(1.54 3.71)"/><path class="cls-4" d="M23.91,602.92c-4.09,2.72-2.29,8.54-1.48,10.17s3.14,6.33,9,4.09a6.9,6.9,0,0,0,4-8.55C34.62,606,31.41,597.92,23.91,602.92Z" transform="translate(1.54 3.71)"/><path class="cls-2" d="M11.36-.52C4.17,2.05,4.28,8.93,7.19,12c0,0-7-.62-8.54,5S4.88,28.22,4.88,28.22s-3.85,5,1.84,11A9.28,9.28,0,0,0,19,40.82S23,48.48,30,45.58,34.28,35.1,34.28,35.1s9,3.75,13-3.1c3-5-1.67-10.32-1.67-10.32s6.74-3,1.76-11.1C44.71,6.16,38,7.68,38,7.68" transform="translate(1.54 3.71)"/><path class="cls-2" d="M24.59,12.61c10.3,3.81,6,12.56,4.38,15.16a7.37,7.37,0,0,1-10.49,2.1c-6.63-4.13-4.49-9.69-3.76-11.61S19,10.54,24.59,12.61Z" transform="translate(1.54 3.71)"/><path class="cls-2" d="M94.68,23.56C90.31,22.37,88,27,88,27s-2.92-4.92-8.3-3-5.29,7.06-3.11,9.36c0,0-5.27-.45-6.38,3.73s4.66,8.38,4.66,8.38S72,49.23,76.19,53.74a6.94,6.94,0,0,0,9.2,1.19s2.93,5.71,8.18,3.55,3.19-7.82,3.19-7.82,6.71,2.8,9.75-2.31c2.23-3.76-1.24-7.72-1.24-7.72s5-2.27,1.31-8.29c-2-3.29-7.06-2.16-7.06-2.16S99.05,24.75,94.68,23.56Z" transform="translate(1.54 3.71)"/><path class="cls-4" d="M89.53,33.86c-4.19-1.55-6.81,2.78-7.36,4.22S80,43.67,85,46.75a5.51,5.51,0,0,0,7.83-1.57C94,43.24,97.23,36.71,89.53,33.86Z" transform="translate(1.54 3.71)"/><path class="cls-4" d="M23.56,11.85c-6-2.44-9.45,3.51-10.14,5.5s-2.69,7.75,4.47,12.4c4.75,3.07,9.16,1.28,11-1.74C30.44,25.35,34.59,16.33,23.56,11.85Z" transform="translate(1.54 3.71)"/><path class="cls-2" d="M270.56,79.11c4.72,3.82,10.12-.63,10.12-.63s.94,7.6,8.57,8.13,10.28-5.8,8.86-9.8c0,0,6.21,3.41,9.83-1.12s-1.19-12.78-1.19-12.78,5.52-3,2.75-10.83a9.28,9.28,0,0,0-10.64-6.41s-.52-8.6-8.12-8.77-8.13,7.87-8.13,7.87-6.71-7-13.19-2.41c-4.76,3.39-2.63,10.12-2.63,10.12s-7.4.07-6.08,9.45c.7,5.14,7.49,6.46,7.49,6.46S265.84,75.3,270.56,79.11Zm11.86-9.85c-7.89-7.64-.42-13.91,2.1-15.64A7.38,7.38,0,0,1,295,55.92c4.4,6.45.2,10.68-1.24,12.14S286.72,73.42,282.42,69.26Z" transform="translate(1.54 3.71)"/><path class="cls-2" d="M138.08,2.53c-3.55,2.54-2,7.56-2,7.56s-5.52.05-4.54,7.06C132.1,21,137.16,22,137.16,22s-1.75,5.16,1.77,8,7.56-.48,7.56-.48.7,5.68,6.39,6.08,7.69-4.33,6.62-7.32c0,0,4.64,2.54,7.34-.84s-.89-9.54-.89-9.54,4.12-2.25,2.05-8.09A6.92,6.92,0,0,0,160.06,5" transform="translate(1.54 3.71)"/><path class="cls-4" d="M147.79,22.62c3.21,3.11,7.36.2,8.44-.89s4.22-4.25.93-9.07a5.52,5.52,0,0,0-7.81-1.72C147.47,12.23,141.89,16.92,147.79,22.62Z" transform="translate(1.54 3.71)"/><path class="cls-4" d="M283.06,70.38c4.52,4.65,10.06.58,11.5-1s5.58-6,.89-13.15c-3.11-4.73-7.87-4.86-10.73-2.82C282.2,55.25,274.77,61.83,283.06,70.38Z" transform="translate(1.54 3.71)"/><path class="cls-2" d="M225.62,30.08c-2.83-4.95-9.1-2.89-9.1-2.89s1.77-7-4.74-10.06-11,1.58-11.11,5.58c0,0-4.3-5.1-9-2.36S188.35,32,188.35,32s-5.87.76-6.1,8.57a8.72,8.72,0,0,0,7.15,9.24s-2.48,7.72,4.14,10.46,9.8-4.13,9.8-4.13,3.5,8.47,10.76,6.62c5.34-1.37,5.76-8,5.76-8s6.52,2.46,8.56-6.23c1.12-4.74-4.37-8.22-4.37-8.22S228.47,35,225.62,30.08Z" transform="translate(1.54 3.71)"/><path class="cls-4" d="M211.86,34.68c-2.36-5.11-8.56-3.59-10.33-2.8s-6.9,3.07-5.22,10.23a7,7,0,0,0,8.38,5.59C207.49,47,216.19,44.08,211.86,34.68Z" transform="translate(1.54 3.71)"/><path class="cls-3" d="M297.11,4.64C300.67,11.38,311,22.49,311,22.49l-6.26,4C311.48,31,324.8,36,324.8,36l-4.34,4.12c14.1,6.74,34.15,7.81,39.81-2.47,1.5.61,3,1.22,4.51,1.8,1.35.51,2.2-1.51.85-2s-3-1.18-4.49-1.79c0-.12.09-.24.13-.37,4.67-15.86-20.69-28.76-20.69-28.76" transform="translate(1.54 3.71)"/><path class="cls-3" d="M321.28-.91c-.81,1.87,1.5,9.13,1.5,9.13-5.87-1.91-25.67-3.58-25.67-3.58" transform="translate(1.54 3.71)"/><path class="cls-3" d="M340.58,6.52l.4,5.34C334.26,6.4,321.28-.91,321.28-.91" transform="translate(1.54 3.71)"/><path class="cls-4" d="M345.24,23.63,350.65,31c-.87-.4-1.73-.82-2.6-1.24A1.09,1.09,0,0,0,347,29.2h0c-1.95-1-3.88-1.93-5.81-2.91A1.05,1.05,0,0,0,341,26l-9-10.8c-.91-1.1-2.68.23-1.76,1.33l6.06,7.27c-5.62-2.94-11.2-5.94-16.75-8.85-1.29-.67-2.13,1.36-.85,2,2.91,1.52,5.82,3.07,8.75,4.62l-5.54.67a1.1,1.1,0,0,0,.33,2.18l8.62-1c4,2.11,8,4.21,12,6.23l-10.44,1c-1.43.14-1.1,2.31.33,2.18l13.85-1.3c4.52,2.21,9.08,4.31,13.7,6.22q2.25.93,4.51,1.8a1.1,1.1,0,0,0,.85-2q-2.26-.86-4.49-1.79-3.19-1.32-6.36-2.76l-.07-.13q-3.85-5.22-7.7-10.46A1.11,1.11,0,0,0,345.24,23.63Z" transform="translate(1.54 3.71)"/><path class="cls-3" d="M394.34,80.8s16.33,19.61,33.63,27.74c10.28,4.83,17.59,6.83,24,6.82-7.77,3.28-15.51,6.58-23.23,9.78a1.67,1.67,0,0,0-.83.69c-2.24-1.73-6.46-3.91-12.79-2.64-16,3.22-29.82,29.94-29.82,29.94s45.3-6.18,44.57-24.38a2.12,2.12,0,0,0,.87-.16q16-6.61,32-13c-21.07,17.69-22.44,55.1-22.44,55.1,34.77-29.79,33.81-52.54,32.6-59.12l2.13-.85c13.87-5.41,27.72-11.24,42.29-14.66,1-.24,2.08-.46,3.12-.68-8.34,5.92-24.4,21.32-27.43,53.51,0,0,40.66-18,32.93-54.59,16.64-3,33.55-3.4,50.52-3.11-26.36,9.74-43.28,57.16-43.28,57.16a105.24,105.24,0,0,0,38.64-23.27c14.61-13.82,14.88-28.47,14.42-33.67l3.89.13c6.22.19,12.43.46,18.64.68-6.36,4.16-14,15.48-11.94,46,0,0,28.79-32,21.84-45.74,8.1.15,16.18.1,24.2-.45-3.16,2.14-7.59,6.59-10.38,15.66-4.7,15.31-14.6,48.14-14.6,48.14s53.35-49.09,31-64.33a135.82,135.82,0,0,0,25.13-4.85,205.48,205.48,0,0,0,42-17.41c2.19-1.25.19-4.69-2-3.45A188.59,188.59,0,0,1,679.27,81c-.06-2.72-1-13.4-11.66-21.93-12.28-9.84-29.85-11.34-29.85-11.34s7.32,16,18.07,24.69c9.69,7.85,16.85,8.5,21.88,9.06-3.34,1-6.68,2-10,2.87a149.91,149.91,0,0,1-30.51,4.19c2-3,4.82-9.73-.63-19.27C629,56,599.23,41.42,599.23,41.42s13.63,38.87,29.43,47.34c-12.28.11-24.63-.57-36.92-1.06a4.73,4.73,0,0,0,.56-.27s7.76-13.52-4.2-40.09-27.34-34.46-27.34-34.46-5.27,25.88,5.83,54.59c4.76,12.3,10.16,17.71,14.77,19.89-9-.22-18.09-.29-27.1.06-.06-6.23-1.29-26.52-14-40.24C525.19,30.8,493.07,9.34,493.07,9.34s14.21,43.32,27.53,57.52c9.75,10.41,23.29,17.62,29.81,20.74a189.9,189.9,0,0,0-32.59,4.31c-.81-2.9-5-11.58-26.58-19.3-26.38-9.43-62.8-12.72-62.8-12.72s21.78,22.8,44.91,31.21c13.43,4.88,23.33,5.33,31,4.48-13.63,4.17-27,9.31-40.32,14.75-.85-3.68-3.81-10.77-14.19-16.32-14.66-7.83-55.5-13.21-55.5-13.21" transform="translate(1.54 3.71)"/></svg>